<svg width="241" height="105" viewBox="0 0 241 105" fill="none" xmlns="http://www.w3.org/2000/svg">
<g clip-path="url(#clip0_0_2)">
<path fill-rule="evenodd" clip-rule="evenodd" d="M193.627 76.2822H197.592V67.3955H193.627C192.602 67.3955 191.747 67.0708 191.063 66.4214C190.38 65.772 190.038 64.9004 190.038 63.8066V23.7139H181.151V63.8066C181.151 66.1081 181.561 68.0506 182.382 69.6343C183.202 71.218 184.239 72.5054 185.492 73.4966C186.745 74.4878 188.095 75.1999 189.542 75.6328C190.989 76.0657 192.351 76.2822 193.627 76.2822ZM49.252 76.2822H58.207V31.0625C58.207 30.0371 57.8994 29.1256 57.2842 28.3281C56.6689 27.5306 55.8828 26.9951 54.9258 26.7217C53.9232 26.471 52.9605 26.528 52.0376 26.8926C51.1147 27.2572 50.3913 27.8724 49.8672 28.7383L29.6328 63.9092L9.3984 28.7383C9.1478 28.3054 8.8402 27.9351 8.4756 27.6274C8.111 27.3198 7.70654 27.0806 7.2622 26.9097C6.81787 26.7388 6.35645 26.6362 5.87793 26.6021C5.39942 26.5679 4.9209 26.6078 4.44238 26.7217C3.46257 26.9951 2.67074 27.5306 2.06689 28.3281C1.46305 29.1256 1.16113 30.0371 1.16113 31.0625V76.2822H10.0479V47.0928L25.873 74.8125C26.2604 75.5189 26.7902 76.0544 27.4624 76.4189C28.1346 76.7835 28.8581 76.9658 29.6328 76.9658C30.4303 76.9658 31.1766 76.7835 31.8716 76.4189C32.5666 76.0544 33.1078 75.5189 33.4951 74.8125L49.252 47.0928V76.2822Z" fill="#9ED203"/>
<g clip-path="url(#clip1_0_2)">
<path d="M75.6797 42.2187C75.6797 42.6406 75.6055 43.0976 75.457 43.5898C75.3086 44.0742 75.0664 44.5273 74.7305 44.9492C74.4023 45.3633 73.9688 45.7109 73.4297 45.9922C72.8984 46.2734 72.25 46.414 71.4844 46.414H65.9883C65.5664 46.414 65.1094 46.3398 64.6172 46.1914C64.1328 46.0429 63.6797 45.8047 63.2578 45.4765C62.8438 45.1406 62.4961 44.707 62.2148 44.1758C61.9336 43.6367 61.793 42.9843 61.793 42.2187C61.793 41.7968 61.8672 41.3398 62.0156 40.8476C62.1641 40.3554 62.4023 39.9023 62.7305 39.4883C63.0664 39.0664 63.5 38.7148 64.0312 38.4336C64.5703 38.1523 65.2227 38.0117 65.9883 38.0117H71.4844V40.9179H65.9883C65.5742 40.9179 65.2539 41.0468 65.0273 41.3047C64.8008 41.5547 64.6875 41.8672 64.6875 42.2422C64.6875 42.6406 64.8164 42.9531 65.0742 43.1797C65.3398 43.3984 65.6523 43.5078 66.0117 43.5078H71.4844C71.8984 43.5078 72.2188 43.3828 72.4453 43.1328C72.6719 42.8828 72.7852 42.5703 72.7852 42.1953V37.9414C72.7852 37.5429 72.6602 37.2265 72.4102 36.9922C72.168 36.7578 71.8594 36.6406 71.4844 36.6406H64.793V33.7461H71.4844C71.9062 33.7461 72.3594 33.8203 72.8438 33.9687C73.3359 34.1172 73.7891 34.3593 74.2031 34.6953C74.625 35.0234 74.9766 35.457 75.2578 35.9961C75.5391 36.5273 75.6797 37.1758 75.6797 37.9414V42.2187ZM89.7539 36.7929H84.4336V46.414H81.3516V36.7929H77.3906V33.7461H81.3516V29.6093H84.4336V33.7461H89.7539V36.7929ZM105.34 37.9414C105.34 38.3633 105.266 38.8203 105.117 39.3125C104.969 39.7968 104.727 40.25 104.391 40.6718C104.062 41.0859 103.629 41.4336 103.09 41.7148C102.559 41.9961 101.91 42.1367 101.145 42.1367H95.6484V39.2422H101.145C101.559 39.2422 101.879 39.1172 102.105 38.8672C102.332 38.6093 102.445 38.2929 102.445 37.9179C102.445 37.5195 102.316 37.207 102.059 36.9804C101.809 36.7539 101.504 36.6406 101.145 36.6406H95.6484C95.2344 36.6406 94.9141 36.7695 94.6875 37.0273C94.4609 37.2773 94.3477 37.5898 94.3477 37.9648V42.2187C94.3477 42.625 94.4727 42.9414 94.7227 43.1679C94.9805 43.3945 95.2969 43.5078 95.6719 43.5078H101.145V46.414H95.6484C95.2266 46.414 94.7695 46.3398 94.2773 46.1914C93.793 46.0429 93.3398 45.8047 92.918 45.4765C92.5039 45.1406 92.1562 44.707 91.875 44.1758C91.5938 43.6367 91.4531 42.9843 91.4531 42.2187V37.9414C91.4531 37.5195 91.5273 37.0664 91.6758 36.582C91.8242 36.0898 92.0625 35.6367 92.3906 35.2226C92.7266 34.8008 93.1602 34.4492 93.6914 34.1679C94.2305 33.8867 94.8828 33.7461 95.6484 33.7461H101.145C101.566 33.7461 102.02 33.8203 102.504 33.9687C102.996 34.1172 103.449 34.3593 103.863 34.6953C104.285 35.0234 104.637 35.457 104.918 35.9961C105.199 36.5273 105.34 37.1758 105.34 37.9414ZM118.477 36.7929H111.621C111.207 36.7929 110.895 36.8984 110.684 37.1093C110.473 37.3125 110.367 37.6133 110.367 38.0117V46.414H107.32V38.0117C107.32 37.4883 107.387 37.0195 107.52 36.6054C107.652 36.1914 107.828 35.8281 108.047 35.5156C108.273 35.1953 108.531 34.9258 108.82 34.707C109.109 34.4804 109.41 34.2968 109.723 34.1562C110.043 34.0156 110.363 33.914 110.684 33.8515C111.012 33.7812 111.316 33.7461 111.598 33.7461H118.477V36.7929ZM123.586 31.1445H120.539V28.3906H123.586V31.1445ZM123.586 46.414H120.539V33.7461H123.586V46.414ZM139.594 42.2187C139.594 42.6406 139.52 43.0976 139.371 43.5898C139.223 44.0742 138.98 44.5273 138.645 44.9492C138.316 45.3633 137.883 45.7109 137.344 45.9922C136.812 46.2734 136.164 46.414 135.398 46.414H129.902C129.48 46.414 129.023 46.3398 128.531 46.1914C128.047 46.0429 127.594 45.8047 127.172 45.4765C126.758 45.1406 126.41 44.707 126.129 44.1758C125.848 43.6367 125.707 42.9843 125.707 42.2187C125.707 41.7968 125.781 41.3398 125.93 40.8476C126.078 40.3554 126.316 39.9023 126.645 39.4883C126.98 39.0664 127.414 38.7148 127.945 38.4336C128.484 38.1523 129.137 38.0117 129.902 38.0117H135.398V40.9179H129.902C129.488 40.9179 129.168 41.0468 128.941 41.3047C128.715 41.5547 128.602 41.8672 128.602 42.2422C128.602 42.6406 128.73 42.9531 128.988 43.1797C129.254 43.3984 129.566 43.5078 129.926 43.5078H135.398C135.812 43.5078 136.133 43.3828 136.359 43.1328C136.586 42.8828 136.699 42.5703 136.699 42.1953V37.9414C136.699 37.5429 136.574 37.2265 136.324 36.9922C136.082 36.7578 135.773 36.6406 135.398 36.6406H128.707V33.7461H135.398C135.82 33.7461 136.273 33.8203 136.758 33.9687C137.25 34.1172 137.703 34.3593 138.117 34.6953C138.539 35.0234 138.891 35.457 139.172 35.9961C139.453 36.5273 139.594 37.1758 139.594 37.9414V42.2187ZM147.762 46.414H146.402C145.965 46.414 145.496 46.3398 144.996 46.1914C144.504 46.0429 144.043 45.8008 143.613 45.4648C143.184 45.1211 142.828 44.6797 142.547 44.1406C142.266 43.5937 142.125 42.9258 142.125 42.1367V28.3906H145.172V42.1367C145.172 42.5117 145.289 42.8125 145.523 43.039C145.758 43.2578 146.051 43.3672 146.402 43.3672H147.762V46.414ZM161.965 42.1367C161.965 42.6601 161.898 43.1328 161.766 43.5547C161.633 43.9687 161.457 44.3359 161.238 44.6562C161.02 44.9687 160.766 45.2383 160.477 45.4648C160.188 45.6836 159.883 45.8633 159.562 46.0039C159.25 46.1445 158.93 46.25 158.602 46.3203C158.281 46.3828 157.977 46.414 157.688 46.414H149.438V43.3672H157.664C158.078 43.3672 158.391 43.2617 158.602 43.0508C158.812 42.8398 158.918 42.5351 158.918 42.1367C158.879 41.3242 158.469 40.9179 157.688 40.9179H152.965C152.293 40.9179 151.723 40.8008 151.254 40.5664C150.785 40.332 150.402 40.039 150.105 39.6875C149.816 39.3359 149.605 38.957 149.473 38.5508C149.348 38.1445 149.285 37.7656 149.285 37.414C149.285 36.7343 149.406 36.164 149.648 35.7031C149.891 35.2343 150.195 34.8554 150.562 34.5664C150.93 34.2773 151.328 34.0703 151.758 33.9453C152.188 33.8125 152.59 33.7461 152.965 33.7461H160.453V36.7929H152.988C152.832 36.7929 152.707 36.8125 152.613 36.8515C152.527 36.8828 152.461 36.9297 152.414 36.9922C152.375 37.0468 152.352 37.1093 152.344 37.1797C152.336 37.2422 152.332 37.3047 152.332 37.3672C152.34 37.4922 152.363 37.5898 152.402 37.6601C152.441 37.7304 152.488 37.7812 152.543 37.8125C152.605 37.8437 152.672 37.8633 152.742 37.8711C152.82 37.8711 152.895 37.8711 152.965 37.8711H157.688C158.469 37.8711 159.133 38.0117 159.68 38.2929C160.227 38.5742 160.668 38.9297 161.004 39.3593C161.34 39.7812 161.582 40.2422 161.73 40.7422C161.887 41.2422 161.965 41.707 161.965 42.1367Z" fill="#E9F3DE"/>
<path fill-rule="evenodd" clip-rule="evenodd" d="M92.6992 72.0746C92.6992 72.598 92.6328 73.0687 92.5 73.4867C92.3672 73.9046 92.1914 74.2718 91.9727 74.5882C91.7539 74.9046 91.5 75.1741 91.2109 75.3968C90.9218 75.6195 90.6191 75.8011 90.3027 75.9418C89.9863 76.0824 89.666 76.1859 89.3418 76.2523C89.0176 76.3187 88.711 76.3519 88.4219 76.3519H82.9258C82.4023 76.3519 81.9336 76.2855 81.5195 76.1527C81.1054 76.0199 80.7402 75.8422 80.4238 75.6195C80.1074 75.3968 79.8379 75.141 79.6152 74.8519C79.3925 74.5628 79.2109 74.2601 79.0703 73.9437C78.9297 73.6273 78.8262 73.307 78.7598 72.9828C78.6934 72.6585 78.6602 72.3558 78.6602 72.0746V67.9496C78.6602 67.1683 78.8028 66.5062 79.0879 65.9632C79.373 65.4203 79.7285 64.9789 80.1543 64.639C80.5801 64.2991 81.043 64.055 81.543 63.9066C82.043 63.7581 82.5039 63.6839 82.9258 63.6839H88.4219V66.7308H82.9492C82.5429 66.7308 82.2343 66.8343 82.0234 67.0414C81.8125 67.2484 81.707 67.5511 81.707 67.9496V72.0511C81.707 72.4652 81.8105 72.7777 82.0176 72.9886C82.2246 73.1995 82.5273 73.305 82.9258 73.305H88.4219C88.836 73.305 89.1446 73.1995 89.3477 72.9886C89.5508 72.7777 89.6523 72.473 89.6523 72.0746V58.3285H92.6992V72.0746ZM76.0117 73.4867C76.1445 73.0687 76.2109 72.598 76.2109 72.0746V67.9496C76.2109 67.5199 76.1347 67.055 75.9824 66.555C75.8301 66.055 75.5859 65.5921 75.25 65.1664C74.9141 64.7406 74.4727 64.3871 73.9258 64.1058C73.3789 63.8245 72.7149 63.6839 71.9336 63.6839H66.4375C66.0156 63.6839 65.5547 63.7581 65.0547 63.9066C64.5547 64.055 64.0918 64.2991 63.666 64.639C63.2402 64.9789 62.8848 65.4203 62.5996 65.9632C62.3145 66.5062 62.1719 67.1683 62.1719 67.9496V72.0746C62.1719 72.8637 62.3145 73.5297 62.5996 74.0726C62.8848 74.6156 63.2402 75.057 63.666 75.3968C64.0918 75.7367 64.5547 75.9808 65.0547 76.1292C65.5547 76.2777 66.0156 76.3519 66.4375 76.3519H71.9336C72.2227 76.3519 72.5293 76.3187 72.8535 76.2523C73.1777 76.1859 73.498 76.0824 73.8145 75.9418C74.1309 75.8011 74.4336 75.6195 74.7227 75.3968C75.0117 75.1741 75.2656 74.9046 75.4844 74.5882C75.7031 74.2718 75.8789 73.9046 76.0117 73.4867ZM72.8477 67.0355C73.0586 67.2386 73.1641 67.5511 73.1641 67.973V72.0746C73.1641 72.473 73.0625 72.7777 72.8594 72.9886C72.6563 73.1995 72.3477 73.305 71.9336 73.305H66.4609C66.0547 73.305 65.7461 73.1995 65.5352 72.9886C65.3242 72.7777 65.2187 72.473 65.2187 72.0746V67.9496C65.2187 67.5511 65.3242 67.2484 65.5352 67.0414C65.7461 66.8343 66.0547 66.7308 66.4609 66.7308H71.9336C72.332 66.7308 72.6367 66.8324 72.8477 67.0355ZM109.012 69.2445C109.16 68.7562 109.234 68.3011 109.234 67.8792C109.234 67.1136 109.094 66.4632 108.812 65.9281C108.531 65.3929 108.182 64.9593 107.764 64.6273C107.346 64.2952 106.893 64.055 106.404 63.9066C105.916 63.7581 105.461 63.6839 105.039 63.6839H99.543C98.7773 63.6839 98.1269 63.8245 97.5918 64.1058C97.0567 64.3871 96.6231 64.7367 96.291 65.1546C95.959 65.5726 95.7188 66.0257 95.5703 66.514C95.4219 67.0023 95.3477 67.4573 95.3477 67.8792V72.1566C95.3477 72.9222 95.4883 73.5726 95.7695 74.1078C96.0508 74.6429 96.4004 75.0765 96.8184 75.4085C97.2363 75.7406 97.6894 75.9808 98.1777 76.1292C98.666 76.2777 99.1211 76.3519 99.543 76.3519H105.039V73.4457H99.5664C99.1914 73.4457 98.8769 73.3324 98.623 73.1058C98.3691 72.8793 98.2422 72.5629 98.2422 72.1566V67.9027C98.2422 67.5277 98.3555 67.2132 98.582 66.9593C98.8086 66.7054 99.1289 66.5785 99.543 66.5785H105.039C105.398 66.5785 105.705 66.6918 105.959 66.9183C106.213 67.1449 106.34 67.4574 106.34 67.8558C106.34 68.2308 106.227 68.5453 106 68.7992C105.773 69.0531 105.453 69.18 105.039 69.18H99.543V72.0746H105.039C105.805 72.0746 106.455 71.934 106.99 71.6527C107.525 71.3714 107.959 71.0218 108.291 70.6039C108.623 70.1859 108.863 69.7328 109.012 69.2445ZM116.852 76.3519H115.492C115.055 76.3519 114.588 76.2777 114.092 76.1292C113.596 75.9808 113.133 75.7367 112.703 75.3968C112.273 75.057 111.918 74.6156 111.637 74.0726C111.355 73.5297 111.215 72.8637 111.215 72.0746V58.3285H114.262V72.0746C114.262 72.4496 114.379 72.7484 114.613 72.971C114.848 73.1937 115.141 73.305 115.492 73.305H116.852V76.3519ZM123.016 76.3519H124.375V73.305H123.016C122.664 73.305 122.371 73.1937 122.137 72.971C121.902 72.7484 121.785 72.4496 121.785 72.0746V58.3285H118.738V72.0746C118.738 72.8637 118.879 73.5297 119.16 74.0726C119.441 74.6156 119.797 75.057 120.227 75.3968C120.656 75.7367 121.119 75.9808 121.615 76.1292C122.111 76.2777 122.578 76.3519 123.016 76.3519ZM129.426 61.0824H126.379V58.3285H129.426V61.0824ZM126.379 76.3519H129.426V63.6839H126.379V76.3519ZM146.383 76.3519H143.336V69.3207C143.336 68.9222 143.268 68.5648 143.131 68.2484C142.994 67.932 142.809 67.6605 142.574 67.4339C142.34 67.2074 142.064 67.0336 141.748 66.9125C141.432 66.7914 141.09 66.7308 140.723 66.7308H135.391V76.3519H132.344V65.1957C132.344 64.9847 132.383 64.7874 132.461 64.6039C132.539 64.4203 132.648 64.2601 132.789 64.1234C132.93 63.9867 133.094 63.8792 133.281 63.8011C133.469 63.723 133.668 63.6839 133.879 63.6839H140.746C141.129 63.6839 141.533 63.7269 141.959 63.8128C142.385 63.8988 142.807 64.0375 143.225 64.2289C143.643 64.4203 144.041 64.6625 144.42 64.9554C144.799 65.2484 145.135 65.6039 145.428 66.0218C145.721 66.4398 145.953 66.9222 146.125 67.4691C146.297 68.016 146.383 68.6332 146.383 69.3207V76.3519ZM162.637 78.9828C162.77 78.5648 162.836 78.0941 162.836 77.5707V67.9496C162.836 67.4261 162.77 66.9574 162.637 66.5433C162.504 66.1292 162.328 65.764 162.109 65.4476C161.89 65.1312 161.637 64.8617 161.348 64.639C161.059 64.4163 160.756 64.2347 160.439 64.0941C160.123 63.9535 159.803 63.85 159.478 63.7835C159.154 63.7171 158.848 63.6839 158.559 63.6839H153.062C152.539 63.6839 152.07 63.7503 151.656 63.8832C151.242 64.016 150.877 64.1918 150.56 64.4105C150.244 64.6292 149.975 64.8831 149.752 65.1722C149.529 65.4613 149.348 65.764 149.207 66.0804C149.066 66.3968 148.963 66.7152 148.896 67.0355C148.83 67.3558 148.797 67.6605 148.797 67.9496V72.0746C148.797 72.598 148.863 73.0687 148.996 73.4867C149.129 73.9046 149.305 74.2718 149.523 74.5882C149.742 74.9046 149.996 75.1741 150.285 75.3968C150.574 75.6195 150.877 75.8011 151.193 75.9418C151.51 76.0824 151.828 76.1859 152.148 76.2523C152.469 76.3187 152.773 76.3519 153.062 76.3519H158.559V73.305H153.086C152.68 73.305 152.371 73.1995 152.16 72.9886C151.949 72.7777 151.844 72.473 151.844 72.0746V67.9496C151.844 67.598 151.953 67.307 152.172 67.0765C152.391 66.846 152.687 66.7308 153.062 66.7308H158.559C158.973 66.7308 159.281 66.8343 159.484 67.0414C159.688 67.2484 159.789 67.5511 159.789 67.9496V77.5707C159.789 77.9691 159.688 78.2738 159.484 78.4847C159.281 78.6956 158.973 78.8011 158.559 78.8011H153.062V81.848H158.559C158.848 81.848 159.154 81.8148 159.478 81.7484C159.803 81.682 160.123 81.5785 160.439 81.4378C160.756 81.2972 161.059 81.1156 161.348 80.8929C161.637 80.6702 161.89 80.4007 162.109 80.0843C162.328 79.7679 162.504 79.4007 162.637 78.9828Z" fill="#E9F3DE"/>
</g>
<path fill-rule="evenodd" clip-rule="evenodd" d="M215.211 76.7539H218.258V61.4844C218.258 61.2734 218.219 61.0742 218.141 60.8867C218.062 60.6992 217.953 60.5352 217.813 60.3945C217.672 60.2539 217.508 60.1445 217.32 60.0664C217.133 59.9883 216.934 59.9492 216.723 59.9492H209.855C208.645 59.9492 207.527 60.1562 206.504 60.5703C205.48 60.9844 204.594 61.5625 203.844 62.3047C203.094 63.0469 202.508 63.9336 202.086 64.9648C201.664 65.9961 201.453 67.125 201.453 68.3516V76.7539H204.5V72.6289H215.211V76.7539ZM215.211 69.582H204.5V68.3516C204.5 67.5 204.619 66.7754 204.857 66.1777C205.096 65.58 205.398 65.082 205.766 64.6836C206.133 64.2851 206.535 63.9726 206.973 63.7461C207.41 63.5195 207.826 63.3515 208.221 63.2422C208.615 63.1328 208.963 63.0644 209.264 63.0371C209.564 63.0098 209.762 62.9961 209.855 62.9961H215.211V69.582ZM238.566 73.0625C238.566 73.4375 238.502 73.8398 238.373 74.2695C238.244 74.6992 238.033 75.0977 237.74 75.4648C237.447 75.832 237.066 76.1387 236.598 76.3848C236.129 76.6309 235.555 76.7539 234.875 76.7539H223.309C223.09 76.7539 222.887 76.7148 222.699 76.6367C222.512 76.5586 222.35 76.4512 222.213 76.3145C222.076 76.1778 221.969 76.0156 221.891 75.8281C221.812 75.6406 221.773 75.4375 221.773 75.2188V61.4844C221.773 61.2734 221.812 61.0742 221.891 60.8867C221.969 60.6992 222.076 60.5352 222.213 60.3945C222.35 60.2539 222.512 60.1445 222.699 60.0664C222.887 59.9883 223.09 59.9492 223.309 59.9492H233.504C233.879 59.9492 234.281 60.0156 234.711 60.1484C235.141 60.2813 235.541 60.4941 235.912 60.7871C236.283 61.0801 236.592 61.4609 236.838 61.9297C237.084 62.3984 237.207 62.9726 237.207 63.6523V64.2266C237.207 64.7657 237.117 65.3457 236.938 65.9668C236.758 66.5879 236.469 67.1758 236.07 67.7305C236.414 67.9414 236.736 68.1953 237.037 68.4922C237.338 68.7891 237.602 69.1328 237.828 69.5234C238.055 69.9141 238.234 70.3555 238.367 70.8477C238.5 71.3398 238.566 71.8828 238.566 72.4766V73.0625ZM235.332 71.4043C235.457 71.7207 235.52 72.0781 235.52 72.4766V73.0391C235.52 73.2032 235.496 73.3321 235.449 73.4258C235.402 73.5195 235.348 73.5859 235.285 73.625C235.223 73.6641 235.152 73.6875 235.074 73.6953C234.996 73.7031 234.93 73.707 234.875 73.707H224.82V62.9961H233.504C233.926 62.9961 234.137 63.2148 234.137 63.6523V64.2266C234.137 64.625 234.076 64.9824 233.955 65.2988C233.834 65.6152 233.66 65.8867 233.434 66.1133C233.207 66.3398 232.934 66.5137 232.613 66.6348C232.293 66.7559 231.934 66.8164 231.535 66.8164H226.039V69.8867H232.906C233.305 69.8867 233.664 69.9473 233.984 70.0684C234.305 70.1895 234.578 70.3633 234.805 70.5898C235.031 70.8164 235.207 71.0879 235.332 71.4043Z" fill="#E9F3DE"/>
</g>
<defs>
<clipPath id="clip0_0_2">
<rect width="241" height="105" fill="white"/>
</clipPath>
<clipPath id="clip1_0_2">
<rect width="102" height="59.434" fill="white" transform="translate(61.1719 22.414)"/>
</clipPath>
</defs>
</svg>
