<svg width="1980" height="698" viewBox="0 0 1980 698" fill="none" xmlns="http://www.w3.org/2000/svg">
<g clip-path="url(#clip0_0_2)">
<path fill-rule="evenodd" clip-rule="evenodd" d="M703.5 114L705.406 115.75C706.168 116.481 706.548 116.844 706.999 117C707.447 117.154 707.966 117.102 709 117C710.138 115.158 711.208 113.273 712.25 111.375C718.669 100.379 729.026 88.9107 741 84L749 82V160H721L721.125 168.125C721.201 191.009 715.511 212.923 699.328 229.766C675.707 252.436 642.415 259.878 610.551 259.227C600.19 258.881 590.329 256.989 580.254 254.586C573.716 253.409 568.858 253.733 563 257C559.933 260.68 559.164 264.253 559 269C559.993 272.538 561.373 275.373 564 278C567.227 279.125 570.311 279.129 573.707 279.133L577.182 279.137L580.812 279.125L584.221 279.137C591.746 279.128 599.231 278.869 606.746 278.508C618.752 277.944 630.745 277.78 642.763 277.76C646.261 277.75 649.759 277.719 653.258 277.687C682.829 277.548 711.403 281.769 733.431 303.333C748.969 319.839 751.661 341.902 751.305 363.594C750.559 384.658 740.647 402.022 725.566 416.305C712.55 427.291 696.451 434.561 680.063 438.75L677.718 439.352C663.828 442.69 650.143 443.314 635.934 443.301C634.124 443.305 632.315 443.309 630.506 443.314C626.733 443.321 622.961 443.321 619.188 443.316C615.367 443.311 611.546 443.318 607.724 443.336C571.437 443.508 531.436 443.671 502 419C492.119 408.961 488.073 397.607 487.688 383.688C487.98 369.042 492.766 356.767 502.797 346.066C508.043 341.146 517.419 333 525 333V331L523.242 330.199C512.382 324.391 504.537 313.351 501.023 301.785C497.379 287.192 498.856 273.377 506.07 259.953C511.508 251.632 518.675 244.439 527 239C524.756 234.793 522.326 231.121 519.375 227.375C503.267 205.536 497.304 179.329 500.268 152.581C502.635 138.45 510.4 124.458 520 114L522.129 111.559C570.113 59.6776 654.817 70.6975 703.5 114ZM590 145C582.724 156.187 581.687 170.479 584.281 183.312C586.209 190.521 589.41 196.169 596 200C605.633 203.87 616.213 204.144 625.938 200.375C631.776 197.386 635.447 193.027 637.813 186.938C641.106 175.391 641.277 161.548 636.188 150.5C632.448 143.932 626.504 138.826 619.188 136.75C608.245 134.441 597.571 136.246 590 145ZM554.555 375.219C554.295 368.924 555.261 365.052 559 360C564.297 353.701 569.856 351.674 577.833 351.605L580.42 351.628C583.33 351.616 586.24 351.609 589.15 351.622C591.229 351.632 593.309 351.637 595.388 351.637C599.733 351.634 604.078 351.635 608.423 351.65C614.063 351.673 619.703 351.69 625.343 351.684C629.751 351.679 634.158 351.679 638.565 351.686C640.67 351.691 642.774 351.695 644.879 351.699C647.897 351.697 650.915 351.696 653.933 351.71L656.709 351.725C662.217 351.709 666.831 351.823 672 354C676.905 357.333 681.227 361.238 683 367C683.418 372.592 683.781 377.902 680.906 382.902L679.5 384.938L678.156 386.965C673.01 391.822 666.688 393.45 659.758 393.509L657.122 393.47C654.139 393.477 651.158 393.478 648.176 393.453C646.051 393.435 643.926 393.423 641.801 393.418C637.359 393.415 632.917 393.407 628.475 393.38C622.708 393.341 616.942 393.306 611.175 393.295C605.582 393.286 599.989 393.271 594.396 393.251L591.195 393.238C588.106 393.228 585.016 393.217 581.926 393.197L579.102 393.177C573.147 393.159 568.882 393.115 563.625 390C558.544 386.225 555.56 381.495 554.555 375.219Z" fill="#9ED203"/>
<path fill-rule="evenodd" clip-rule="evenodd" d="M1516 185C1513.42 156.666 1506.82 127.318 1485.09 107.223C1437.12 66.0153 1352.13 63.6495 1307.23 111.484L1305 114C1287.84 133.038 1278.79 156.833 1275.25 181.996C1270.7 218.528 1275.42 262.772 1298.35 292.961L1300 295C1304.18 300.476 1309.09 305.032 1314.25 309.562C1342.43 333.721 1379.51 339.147 1415.66 336.465C1445.93 333.51 1476.72 323.395 1496.95 299.543L1499 297C1506.89 287.481 1513.15 276.346 1515 264C1505.34 259.841 1495.54 256.075 1485.73 252.309C1482.54 251.089 1479.36 249.868 1476.18 248.642C1474.07 247.832 1471.97 247.023 1469.87 246.217L1466.84 245.055C1459.96 242.4 1453.09 240.016 1446 238C1445.14 239.8 1444.27 241.6 1443.4 243.395L1442.31 245.625C1440.96 248.469 1439.58 251.273 1438 254C1431.91 262.483 1424.09 267.488 1414 270C1401.03 272.225 1387.03 270.641 1376 263C1370.45 255.797 1367.61 252.118 1365.85 247.982C1364.02 243.663 1363.35 238.846 1362 229L1516 228V185ZM1360 186C1361.25 174.778 1364.38 166.253 1371.12 157.187C1382.84 143.521 1402.46 140.47 1417.54 150.73C1428.44 159.877 1434.25 172.03 1436 186H1360Z" fill="#E9F3DE"/>
<path fill-rule="evenodd" clip-rule="evenodd" d="M1058.36 105.953C1072.52 119.007 1081.63 139.264 1085 158C1085.08 160.67 1085.03 163.328 1085 166C1075.81 168.483 1066.63 170.961 1057.44 173.432C1053.17 174.579 1048.9 175.729 1044.64 176.882C1040.52 177.995 1036.4 179.104 1032.28 180.209C1030.71 180.631 1029.14 181.055 1027.57 181.481C1025.37 182.077 1023.17 182.667 1020.97 183.256C1019.72 183.593 1018.47 183.931 1017.18 184.279C1014 185 1014 185 1010 185C1009.52 183.828 1009.52 183.828 1009.03 182.633C1007.8 179.697 1006.57 176.771 1005.31 173.849C1004.78 172.59 1004.25 171.329 1003.73 170.064C1000.11 161.274 996.559 154.16 987.713 149.898C979.164 146.476 971.004 147.351 962.609 150.742C953.256 155.251 948.511 161.523 944.938 171.125C936.873 197.361 935.186 228.198 946 254C950.45 261.658 956.791 267.249 965.438 269.688C976.384 271.022 986.321 267.775 995 261C999.627 256.425 1002.52 251.542 1005.13 245.625C1005.63 244.509 1005.63 244.509 1006.15 243.371C1007.11 241.252 1008.06 239.127 1009 237C1009.46 235.975 1009.92 234.95 1010.4 233.895C1011.28 231.935 1012.14 229.968 1013 228C1021.73 228.532 1030.1 230.107 1038.64 231.941C1040.01 232.232 1041.39 232.522 1042.76 232.812C1046.34 233.567 1049.92 234.33 1053.5 235.095C1057.16 235.877 1060.83 236.652 1064.5 237.428C1071.67 238.945 1078.83 240.47 1086 242C1086.02 243.905 1086.03 245.809 1086.04 247.714C1086.05 248.774 1086.06 249.835 1086.06 250.928C1085.98 255.036 1085.33 258.829 1084.38 262.812C1084.2 263.572 1084.02 264.332 1083.84 265.115C1078.23 287.921 1064.61 306.536 1044.68 319.09C1012.46 338.395 970.701 341.767 934.5 332.75C912.999 327.09 892.872 316.88 878 300C877.381 299.312 876.763 298.623 876.125 297.914C857.152 275.606 848.943 245.175 848.797 216.313C848.791 215.411 848.786 214.51 848.78 213.581C848.77 211.682 848.764 209.783 848.76 207.883C848.75 205.035 848.719 202.188 848.688 199.34C848.525 171.265 855.574 141.947 874 120C874.709 119.153 875.418 118.306 876.149 117.434C885.544 106.638 895.587 98.9016 908 92C909.448 91.1647 909.448 91.1647 910.926 90.3125C957.199 65.1796 1018.6 73.0907 1058.36 105.953V105.953Z" fill="#E9F3DE"/>
<path fill-rule="evenodd" clip-rule="evenodd" d="M456.969 104.559C471.675 118.477 482.853 140.346 484.561 160.757C484.645 161.741 484.729 162.725 484.816 163.738C484.877 164.485 484.937 165.231 485 166C476.924 168.183 468.848 170.365 460.772 172.546C457.021 173.559 453.271 174.572 449.52 175.586C445.896 176.566 442.271 177.545 438.646 178.523C437.269 178.895 435.891 179.268 434.513 179.64C431.391 180.485 428.267 181.325 425.141 182.157C423.255 182.663 421.372 183.181 419.496 183.722C412.679 185.627 412.679 185.627 409 184C407.502 181.687 407.502 181.687 406.281 178.645C405.824 177.547 405.366 176.449 404.895 175.318C404.434 174.161 403.974 173.004 403.5 171.812C398.891 159.075 398.891 159.075 388.875 150.687C388.212 150.382 387.55 150.076 386.867 149.762C378.873 146.5 370.599 147.318 362.707 150.559C354.518 154.919 349.245 160.701 346.09 169.402C337.65 197.263 334.273 226.745 347 254C348.23 256.124 349.541 258.02 351 260C351.33 260.99 351.66 261.98 352 263C353.837 264.119 353.837 264.119 356 265C356.648 265.342 357.297 265.683 357.965 266.035C364.727 269.557 370.925 271.346 378.578 269.316C389.651 265.589 397.391 260.407 403 250C405.924 243.713 408.577 237.311 411.171 230.883C412 229 412 229 413 228C421.591 228.081 430.03 230.097 438.383 231.906C439.732 232.194 441.082 232.482 442.431 232.769C445.234 233.367 448.036 233.969 450.837 234.575C454.432 235.352 458.03 236.12 461.628 236.885C464.402 237.475 467.177 238.07 469.95 238.666C471.278 238.951 472.606 239.234 473.934 239.517C475.777 239.911 477.619 240.31 479.461 240.709C480.51 240.935 481.558 241.16 482.638 241.393C485 242 485 242 486 243C486.168 267.259 476.926 290.827 459.875 308.16C454.399 313.236 448.458 317.276 442 321C440.985 321.588 439.971 322.176 438.926 322.781C404.751 341.223 360.882 340.557 324.371 329.945C300.243 321.985 279.387 306.421 267 284C266.681 283.435 266.362 282.87 266.033 282.288C257.105 266.312 252.517 249.05 250 231C249.816 229.702 249.631 228.404 249.441 227.066C248.668 219.786 248.756 212.439 248.75 205.125C248.749 204.344 248.749 203.563 248.748 202.758C248.764 190.936 249.195 179.537 252 168C252.161 167.304 252.322 166.608 252.488 165.892C259.339 137.132 276.189 111.393 301.332 95.5486C347.458 67.3282 415.228 68.5846 456.969 104.559V104.559Z" fill="#9ED203"/>
<path fill-rule="evenodd" clip-rule="evenodd" d="M1707.94 96.125C1709.07 96.7808 1710.21 97.4366 1711.38 98.1123C1721 103.783 1729.17 110.038 1737 118C1735.63 122.07 1733.82 124.585 1730.87 127.688C1727.16 131.7 1723.69 135.805 1720.3 140.094C1713.07 149.223 1705.81 158.363 1698 167C1697.12 166.416 1697.12 166.416 1696.23 165.82C1662.31 143.075 1662.31 143.075 1623.6 136.445C1619.92 137.481 1617.43 138.638 1614.5 141.125C1612.44 145.066 1611.81 148.564 1612 153C1614.05 159.282 1618.62 162.681 1624.21 165.773C1636.43 171.204 1649.08 174.608 1662 178C1682.85 183.477 1702.28 189.79 1719 204C1719.59 204.495 1720.18 204.99 1720.79 205.5C1731.34 215.148 1737.32 230.037 1738.12 244.198C1738.92 268.908 1733.95 289.519 1717 308C1703.57 322.208 1687.12 329.649 1668.5 334.688C1667.75 334.89 1667.01 335.093 1666.24 335.302C1654.54 338.319 1643 339.392 1630.94 339.375C1630.26 339.374 1629.59 339.374 1628.89 339.373C1617.22 339.33 1606.26 338.194 1595 335C1594.27 334.802 1593.54 334.603 1592.79 334.399C1567.16 327.246 1542.94 313.231 1522 297C1523.43 292.71 1525.55 289.901 1528.5 286.5C1532.1 282.293 1535.58 278.031 1538.94 273.625C1543.04 268.233 1547.21 262.893 1551.42 257.581C1553.38 255.101 1555.25 252.63 1557 250C1560.84 249.458 1563 250.251 1566.19 252.344C1566.96 252.844 1567.74 253.345 1568.53 253.861C1569.35 254.402 1570.16 254.943 1571 255.5C1572.71 256.607 1574.43 257.714 1576.14 258.82C1578.4 260.296 1580.66 261.775 1582.91 263.257C1600.4 274.697 1620.34 281.897 1641.44 277.66C1647.16 276.186 1650.9 274.125 1654 269C1654.68 265.875 1654.58 264.062 1653.04 261.238C1644.82 250.266 1627.24 247.812 1614.81 244.063C1580.47 233.669 1580.47 233.669 1567.75 227.188C1567.1 226.856 1566.44 226.525 1565.77 226.184C1549.09 217.461 1535.38 204.379 1529.56 186.125C1523.3 164.171 1526.07 140.448 1536.91 120.543C1540.72 113.906 1545.4 108.202 1551 103C1551.59 102.419 1552.18 101.837 1552.78 101.238C1592.75 63.2803 1663.79 70.5437 1707.94 96.125V96.125Z" fill="#E9F3DE"/>
<path fill-rule="evenodd" clip-rule="evenodd" d="M0 506C653.4 506 1306.8 506 1980 506C1980 511.94 1980 517.88 1980 524C1326.6 524 673.2 524 0 524C0 518.06 0 512.12 0 506V506Z" fill="#E9F3DE"/>
<path fill-rule="evenodd" clip-rule="evenodd" d="M196 0C196 28.05 196 56.1 196 85C208.87 85 221.74 85 235 85C235 105.46 235 125.92 235 147C222.13 147 209.26 147 196 147C196.063 161.221 196.138 175.443 196.236 189.664C196.28 196.268 196.32 202.871 196.346 209.475C196.372 215.849 196.413 222.222 196.463 228.596C196.48 231.027 196.491 233.457 196.498 235.888C196.507 239.295 196.535 242.701 196.568 246.108C196.566 247.111 196.565 248.115 196.563 249.148C196.655 256.014 197.388 261.176 202.219 266.399C205.804 268.463 208.363 268.544 212.488 268.609C213.775 268.64 215.062 268.671 216.388 268.702C218.013 268.718 219.638 268.734 221.312 268.75C226.489 268.833 231.666 268.915 237 269C237 289.13 237 309.26 237 330C216.059 330.201 216.059 330.201 207.064 330.244C200.951 330.274 194.837 330.309 188.724 330.377C183.79 330.432 178.856 330.462 173.921 330.474C172.048 330.484 170.174 330.501 168.301 330.529C152.431 330.75 139.229 328.401 127.07 317.227C113.244 302.688 112.828 281.67 112.886 262.796C112.886 261.536 112.886 260.276 112.886 258.978C112.886 255.563 112.892 252.149 112.899 248.734C112.905 245.151 112.905 241.568 112.907 237.984C112.91 231.217 112.918 224.449 112.928 217.681C112.939 209.969 112.945 202.257 112.95 194.544C112.96 178.696 112.978 162.848 113 147C103.76 147 94.52 147 85 147C85 126.54 85 106.08 85 85C94.24 85 103.48 85 113 85C113 69.16 113 53.32 113 37C131.034 27.9831 131.034 27.9831 137.164 25.1758C137.838 24.8668 138.511 24.5578 139.206 24.2394C141.344 23.2603 143.484 22.2859 145.625 21.3125C146.366 20.9746 147.107 20.6367 147.871 20.2886C158.893 15.2649 169.955 10.3333 181.062 5.5C181.711 5.2167 182.359 4.9334 183.027 4.64151C184.841 3.85056 186.657 3.06574 188.473 2.28125C189.496 1.83846 190.52 1.39566 191.574 0.939453C194 0 194 0 196 0V0Z" fill="#9ED203"/>
<path fill-rule="evenodd" clip-rule="evenodd" d="M1855 0C1855 28.05 1855 56.1 1855 85C1867.54 85 1880.08 85 1893 85C1893 105.46 1893 125.92 1893 147C1880.46 147 1867.92 147 1855 147C1855.04 161.482 1855.1 175.964 1855.18 190.446C1855.22 197.171 1855.26 203.896 1855.27 210.62C1855.29 217.111 1855.32 223.601 1855.37 230.091C1855.38 232.567 1855.39 235.042 1855.39 237.518C1855.39 240.987 1855.42 244.455 1855.45 247.924C1855.45 248.946 1855.44 249.968 1855.44 251.021C1855.53 257.21 1856.37 260.938 1860 266C1863.34 268.617 1867.04 268.313 1871.17 268.414C1872.42 268.45 1873.67 268.485 1874.96 268.522C1876.54 268.556 1878.12 268.59 1879.75 268.625C1887.3 268.811 1887.3 268.811 1895 269C1895 289.13 1895 309.26 1895 330C1873.98 330.16 1873.98 330.16 1864.97 330.195C1858.84 330.219 1852.7 330.247 1846.57 330.302C1841.63 330.345 1836.68 330.369 1831.73 330.38C1829.85 330.387 1827.97 330.401 1826.09 330.423C1809.79 330.604 1797.79 328.095 1785.31 316.875C1773.16 304.101 1771.84 286.222 1771.89 269.607C1771.89 268.266 1771.89 266.925 1771.89 265.584C1771.89 261.965 1771.89 258.346 1771.9 254.726C1771.9 250.936 1771.91 247.146 1771.91 243.356C1771.91 236.188 1771.92 229.02 1771.93 221.852C1771.94 213.687 1771.94 205.523 1771.95 197.358C1771.96 180.572 1771.98 163.786 1772 147C1762.43 147 1752.86 147 1743 147C1743 126.54 1743 106.08 1743 85C1752.57 85 1762.14 85 1772 85C1772 69.16 1772 53.32 1772 37C1790.49 27.7557 1790.49 27.7557 1796.56 24.8867C1797.62 24.3817 1797.62 24.3817 1798.71 23.8665C1800.95 22.8044 1803.19 21.7455 1805.44 20.6875C1806.21 20.3224 1806.98 19.9572 1807.78 19.5811C1849.28 0 1849.28 0 1855 0V0Z" fill="#E9F3DE"/>
<path fill-rule="evenodd" clip-rule="evenodd" d="M1106 84C1135.7 84 1165.4 84 1196 84C1196 96.87 1196 109.74 1196 123C1199.96 121.682 1200.21 120.197 1202.13 116.563C1209.68 103.281 1223 89.7083 1238 85C1246.09 82.9773 1254.66 84 1263 84C1263 112.05 1263 140.1 1263 169C1251.12 169 1239.24 169 1227 169C1216.58 171.083 1210.18 172.565 1203.54 180.645C1200.84 184.779 1199.36 189.28 1198 194C1197.82 194.597 1197.65 195.194 1197.46 195.809C1196.91 198.439 1196.86 200.879 1196.84 203.568C1196.83 204.701 1196.82 205.834 1196.81 207.002C1196.81 208.24 1196.8 209.479 1196.79 210.755C1196.78 212.062 1196.77 213.37 1196.76 214.717C1196.74 218.299 1196.72 221.882 1196.7 225.464C1196.67 229.209 1196.65 232.954 1196.62 236.699C1196.57 243.789 1196.53 250.879 1196.48 257.969C1196.42 267.551 1196.36 277.133 1196.29 286.715C1196.19 301.81 1196.1 316.905 1196 332C1166.3 332 1136.6 332 1106 332C1106 250.16 1106 168.32 1106 84V84Z" fill="#E9F3DE"/>
<path fill-rule="evenodd" clip-rule="evenodd" d="M623 572V585L613.82 586.27C612.348 586.494 611.568 586.613 610.979 587.013C610.315 587.465 609.895 588.275 609 590C609.334 592.924 610.617 595.288 611.982 597.799L611.982 597.799C612.175 598.154 612.369 598.512 612.563 598.875C615.986 606.35 616.499 613.952 614.148 621.867C610.829 629.297 605.425 634.873 597.813 637.875C590.125 640.143 582.544 640.926 574.625 639.313C571.906 638.787 571.906 638.787 569.125 640.063C566.695 641.875 566.695 641.875 566.5 645.063L567 648C571.401 650.934 576.423 651.129 581.572 651.329C582.356 651.359 583.142 651.389 583.93 651.43L587.84 651.652C589.856 651.765 591.872 651.875 593.888 651.974C606.525 652.607 611.136 652.838 614.81 654.812C616.921 655.946 618.722 657.656 621.559 660.348C625.958 665.391 626.551 670.848 626.348 677.285C625.621 682.961 623.287 686.619 619.438 690.75C609.768 698.033 597.41 698.2 585.875 698.25L582.359 698.313C571.08 698.363 560.353 697.232 552 689C547.836 683.95 547.602 679.471 547.648 673.086C548.296 667.4 551.067 663.671 555.313 660L557 659L555.063 656.188C552.087 651.589 551.632 648.427 552 643C553.891 637.747 556.669 635.272 561 632L559.758 630.242L558.125 627.875L556.508 625.555C552.467 618.708 552.132 611.765 553 604C555.503 595.594 560.8 590.096 568.211 585.684C577.698 581.161 588.878 582.347 599 584L599.664 582.355C601.351 578.551 602.389 576.403 605.938 574.063C611.802 572.028 616.826 571.908 623 572ZM569.617 600.73C566.831 605.61 566.025 610.469 567 616C568.864 621.319 572.115 624.298 577 627C581.981 628.66 586.303 628.599 591.188 626.875C596.094 623.604 598.889 620.316 600.5 614.688C601.41 609.603 600.308 605.561 598 601C595.439 597.671 593.059 596.059 589 595C581.724 594.171 574.483 594.642 569.617 600.73ZM561.998 676.979C561.754 673.861 561.593 671.814 563 669C565.603 666.49 567.231 665.115 570.848 664.574L574.063 664.688C575.968 664.744 577.873 664.803 579.777 664.893C581.364 664.969 582.952 665.037 584.54 665.1C588.109 665.237 591.678 665.395 595.246 665.555L597.727 665.684C603.346 665.967 606.898 666.898 611 671C611.627 672.458 611.939 673.182 612.062 673.937C612.184 674.682 612.123 675.458 612 677C609.485 681.325 606.621 683.236 602 685C590.204 688.015 578.156 688.389 566.992 683.164C564.191 681.527 563.088 680.047 562 677L561.998 676.979Z" fill="white"/>
<path fill-rule="evenodd" clip-rule="evenodd" d="M965 586C969.96 589.501 972.159 592.817 975 598C976.052 596.753 976.052 596.753 977.125 595.48C987.39 583.592 987.39 583.592 996.879 582.742C1004.96 582.439 1010.62 583.659 1017.25 588.25C1027.59 598.591 1026.15 613.757 1026.2 627.375C1026.19 632.25 1026.16 637.125 1026.12 642C1026.11 644.529 1026.11 647.057 1026.1 649.586C1026.08 655.724 1026.04 661.862 1026 668C1021.05 668 1016.1 668 1011 668C1010.99 666.153 1010.97 664.306 1010.96 662.404C1010.9 656.289 1010.84 650.174 1010.76 644.059C1010.72 640.354 1010.68 636.648 1010.65 632.942C1010.63 629.363 1010.59 625.784 1010.54 622.205C1010.52 620.842 1010.51 619.479 1010.5 618.117C1010.49 616.202 1010.46 614.287 1010.43 612.373C1010.42 611.284 1010.41 610.196 1010.4 609.075C1009.93 605.493 1008.86 603.083 1007 600C1002.6 596.931 998.259 596.114 993 597C987.805 598.757 983.734 601.139 981 606C978.411 614.035 977.54 621.709 977.488 630.109C977.47 631.202 977.452 632.295 977.434 633.421C977.38 636.864 977.346 640.307 977.312 643.75C977.279 646.104 977.245 648.458 977.209 650.812C977.125 656.542 977.058 662.271 977 668C972.38 668 967.76 668 963 668C962.991 666.194 962.981 664.388 962.972 662.527C962.936 656.536 962.882 650.545 962.816 644.554C962.777 640.925 962.744 637.295 962.729 633.666C962.714 630.157 962.679 626.65 962.632 623.142C962.61 621.164 962.608 619.185 962.606 617.207C962.49 610.068 962.074 604.972 958 599C953.234 596.143 948.404 596.517 943 597C938.03 598.621 936.369 602.345 934.016 606.746C932.235 610.698 931.864 614.182 931.795 618.503C931.775 619.604 931.755 620.705 931.734 621.839C931.718 623.021 931.701 624.204 931.684 625.422C931.663 626.637 931.642 627.852 931.621 629.104C931.555 632.986 931.496 636.868 931.438 640.75C931.394 643.382 931.351 646.013 931.307 648.645C931.2 655.096 931.098 661.548 931 668C926.38 668 921.76 668 917 668C917 640.61 917 613.22 917 585C921.29 585 925.58 585 930 585C930.33 588.3 930.66 591.6 931 595C931.969 593.762 932.939 592.525 933.937 591.25C942.047 582.084 954.182 579.848 965 586V586Z" fill="white"/>
<path fill-rule="evenodd" clip-rule="evenodd" d="M676 557C681.28 557 686.56 557 692 557C692 571.52 692 586.04 692 601C707.84 601 723.68 601 740 601C740 586.48 740 571.96 740 557C744.62 557 749.24 557 754 557C754 593.63 754 630.26 754 668C749.38 668 744.76 668 740 668C740 650.51 740 633.02 740 615C724.16 615 708.32 615 692 615C692 632.49 692 649.98 692 668C686.72 668 681.44 668 676 668C676 631.37 676 594.74 676 557V557Z" fill="white"/>
<path fill-rule="evenodd" clip-rule="evenodd" d="M841.151 606.196C840.674 599.271 837.427 592.202 832.313 587.563C821.266 582.352 809.268 581.539 797.199 583.441L795 584C790.167 585.187 786.069 586.624 782.188 589.813C776.608 595.081 774.521 599.445 774 607L787 609C789.328 603.18 790.808 600.177 796.375 597.188C804.041 594.651 813.603 594.773 821 598C824.05 600.261 824.879 601.528 825.828 605.234L826.25 608.75C826.516 610.831 826.771 612.914 827 615C826.039 614.973 825.069 614.942 824.092 614.912C808.555 614.424 791.159 613.879 779.012 624.785C773.622 630.398 770.911 636.444 770.75 644.25C771.274 652.111 773.277 658.8 779.188 664.313C787.788 670.944 797.607 670.591 808 670C814.331 668.896 821.013 665.66 825.125 660.688L827 658L829 668H843C842.013 654.417 841.719 640.864 841.5 627.25C841.448 623.975 841.396 620.7 841.337 617.425L841.281 614.328L841.24 611.361L841.189 608.606L841.151 606.196ZM787 649C786.329 644.169 786.456 640.243 789 636C796.118 628.7 804.259 626.812 814.222 626.681C815.046 626.683 816.076 626.613 817.207 626.536C821.006 626.277 825.941 625.941 828 628C827.974 631.704 827.552 635.34 827 639C824.77 646.311 819.94 652.593 813.313 656.5C807.036 659.253 799.919 658.938 793.5 656.875C790.313 654.485 788.737 652.608 787 649Z" fill="white"/>
<path fill-rule="evenodd" clip-rule="evenodd" d="M1962 617C1960.9 605.994 1956.26 596.278 1947.75 589.125C1938.38 582.408 1927.61 581.739 1916.39 583.383C1907.35 585.719 1900.79 590.856 1895.34 598.25C1887.54 610.188 1886.21 624.865 1888.45 638.773L1889 641C1890 645.127 1891.35 648.849 1893.44 652.559C1898.8 660.71 1905.4 667.151 1915.07 669.563C1927.74 671.454 1939.12 670.391 1949.81 662.875C1955.73 657.948 1959.8 651.644 1961 644C1956.25 642.45 1952.01 641.072 1947 642C1946.36 642.771 1946.01 643.181 1945.7 643.615C1945.35 644.108 1945.04 644.631 1944.38 645.75C1941.08 651.785 1937.01 654.605 1930.46 656.586C1924.57 657.575 1919.07 656.001 1914.13 652.75C1905.78 642.328 1905.78 642.328 1904 628H1962V617ZM1905 617C1905 611.861 1905.33 608.523 1908.19 604.203C1912.37 598.88 1916.88 595.583 1923.68 594.621C1929.85 594.356 1935.08 595.054 1940 599C1945.19 606.874 1945.19 606.874 1946 617H1905Z" fill="white"/>
<path fill-rule="evenodd" clip-rule="evenodd" d="M278 613C275.593 603.906 272.428 595.2 264.813 589.188C253.241 581.927 239.231 580.235 226.496 585.609C216.621 591.111 209.02 600.331 205.684 611.102C202.868 627.158 204.076 643.143 213 657C218.635 663.792 225.261 668.391 234 670C245.542 670.974 256.846 670.534 266.063 662.813C272.041 657.288 276.651 652.378 277 644C272.127 642.409 268.192 641.788 263 642L261.313 645.188C257.795 651.233 254.072 654.623 247.32 656.551C240.221 657.925 235.079 655.607 229.203 651.777C225.762 646.875 223.972 644.325 222.927 641.499C221.795 638.438 221.537 635.053 221 628H279L278 613ZM221.165 616.257C222.656 609.531 223.377 606.278 227.25 600.953C234.288 593.098 246.868 592.127 255.312 598.391C261.436 604.23 262.032 608.284 263 617H221C221.056 616.748 221.111 616.5 221.165 616.257Z" fill="white"/>
<path fill-rule="evenodd" clip-rule="evenodd" d="M1471.25 587.75C1475.72 591.404 1479.79 595.587 1482 601C1482 602.32 1482 603.64 1482 605C1473.05 607.863 1473.05 607.863 1469 607C1467.33 605.083 1466 603.122 1464.69 600.945C1461.6 597.386 1457.88 597.072 1453.34 596.699C1452.08 596.695 1450.81 596.692 1449.5 596.688C1448.23 596.671 1446.96 596.654 1445.66 596.637C1441.71 597.028 1439.32 597.864 1436 600C1434.26 603.756 1433.59 605.791 1434.94 609.75C1440.75 616.093 1450.91 616.503 1458.93 617.93C1468.24 619.72 1476.97 622.443 1482.88 630.266C1486.77 636.298 1486.71 643.036 1486 650C1484.29 656.728 1480.81 661.271 1475 665C1463.65 671.075 1448.85 672.226 1436.38 668.875C1427.62 665.582 1421.1 660.523 1417 652C1416.33 649.558 1416.11 647.548 1416 645C1420.33 642.968 1424.29 642.479 1429 642C1429.3 642.531 1429.61 643.062 1429.92 643.609C1433.6 649.816 1437.08 653.537 1444 656C1451.49 657.529 1458 657.137 1465 654C1468.36 651.709 1468.86 650.501 1469.94 646.563C1470.01 642.473 1469.7 641.043 1467 638C1460.09 634.429 1452.66 633.421 1445.07 632.07C1435.34 630.199 1426.75 627.443 1421 619C1417.48 613.446 1418.36 606.298 1419 600C1421.29 593.502 1426.26 588.996 1432.23 585.809C1444.53 580.47 1459.55 581.449 1471.25 587.75V587.75Z" fill="white"/>
<path fill-rule="evenodd" clip-rule="evenodd" d="M1115 615C1113.07 604.461 1107.57 595.263 1099.24 588.508C1087.18 580.393 1072.07 581.03 1059.53 587.496C1050.42 592.916 1044.75 602.15 1042.13 612.25C1039 627.789 1040.77 643.186 1049.28 656.641C1054.25 663.453 1060.7 668.184 1069 670C1081.61 670.985 1091.55 669.422 1102 662C1110.87 653.134 1115.31 641.327 1115.47 628.907L1115.44 626.125C1115.41 622.403 1115.31 618.71 1115 615ZM1057.39 638.309C1055.89 625.615 1055.63 612.54 1063.31 601.75C1069.71 595.208 1078.36 594.122 1087 597C1091.89 600.191 1095.27 603.667 1097.44 609.125C1101 620.721 1101.27 634.092 1096.37 645.375C1093.03 651.197 1088.07 655.758 1081.56 657.625C1076.49 658.383 1072.43 657.593 1068 655C1062.41 650.447 1058.95 645.352 1057.39 638.309Z" fill="white"/>
<path fill-rule="evenodd" clip-rule="evenodd" d="M1542 557C1564.44 557 1586.88 557 1610 557C1610 561.62 1610 566.24 1610 571C1592.84 571 1575.68 571 1558 571C1558 581.56 1558 592.12 1558 603C1561.09 602.988 1564.18 602.977 1567.37 602.965C1570.35 602.957 1573.33 602.951 1576.32 602.945C1578.4 602.94 1580.47 602.933 1582.55 602.925C1585.53 602.912 1588.52 602.907 1591.5 602.902C1592.9 602.895 1592.9 602.895 1594.33 602.887C1595.19 602.887 1596.05 602.887 1596.94 602.886C1597.7 602.884 1598.46 602.882 1599.25 602.88C1601 603 1601 603 1602 604C1602.1 605.831 1602.13 607.666 1602.12 609.5C1602.13 611 1602.13 611 1602.13 612.531C1602 615 1602 615 1601 616C1599.65 616.093 1598.29 616.117 1596.94 616.114C1596.07 616.113 1595.19 616.113 1594.29 616.113C1592.91 616.105 1592.91 616.105 1591.5 616.098C1590.65 616.097 1589.81 616.096 1588.94 616.095C1585.77 616.089 1582.6 616.075 1579.44 616.062C1572.36 616.042 1565.29 616.021 1558 616C1558 633.16 1558 650.32 1558 668C1552.72 668 1547.44 668 1542 668C1542 631.37 1542 594.74 1542 557V557Z" fill="white"/>
<path fill-rule="evenodd" clip-rule="evenodd" d="M1321.52 612.333C1319.08 601.443 1314.29 593.438 1305 587C1290.73 579.214 1272.63 581.598 1260.75 592.562C1250.83 603.221 1248.63 615.784 1248.87 629.805C1249.36 642.262 1253.53 654.154 1262.75 662.875C1271.97 670.208 1281.61 671.093 1293 670C1303.2 667.98 1310.3 661.98 1316.37 653.75C1323.47 642.069 1323.89 625.592 1321.52 612.333ZM1265.39 638.309C1263.89 625.615 1263.63 612.54 1271.31 601.75C1277.71 595.208 1286.36 594.122 1295 597C1299.86 600.171 1303.26 603.647 1305.44 609.062C1309.03 620.719 1309.27 633.983 1304.37 645.312C1301.06 651.179 1296.1 655.75 1289.56 657.625C1284.49 658.383 1280.43 657.593 1276 655C1270.41 650.447 1266.95 645.352 1265.39 638.309Z" fill="white"/>
<path fill-rule="evenodd" clip-rule="evenodd" d="M1754 585C1758.95 585 1763.9 585 1769 585C1769.01 586.745 1769.03 588.491 1769.04 590.289C1769.1 596.081 1769.16 601.872 1769.24 607.663C1769.28 611.172 1769.32 614.68 1769.35 618.189C1769.38 622.23 1769.43 626.271 1769.49 630.312C1769.49 631.562 1769.5 632.811 1769.51 634.098C1769.62 640.739 1770.02 646.016 1773 652C1776.76 655.259 1780 656.9 1785 657C1790.47 655.956 1794.26 653.607 1797.59 649.145C1802.69 641.39 1803.6 633.75 1803.61 624.648C1803.63 623.508 1803.64 622.368 1803.66 621.194C1803.71 617.587 1803.73 613.982 1803.75 610.375C1803.78 607.915 1803.81 605.456 1803.84 602.996C1803.91 596.997 1803.96 590.999 1804 585C1808.95 585 1813.9 585 1819 585C1819 612.39 1819 639.78 1819 668C1814.38 668 1809.76 668 1805 668C1804.5 663.545 1804.5 663.545 1804 659C1803.03 660.073 1802.06 661.145 1801.06 662.25C1795.23 667.993 1789.76 670.202 1781.56 670.5C1773.33 670.193 1766.85 668.366 1761.06 662.312C1753.27 652.436 1753.85 639.937 1753.9 627.969C1753.9 626.737 1753.91 625.505 1753.91 624.236C1753.91 620.324 1753.92 616.412 1753.94 612.5C1753.94 609.839 1753.95 607.177 1753.95 604.516C1753.96 598.01 1753.98 591.505 1754 585V585Z" fill="white"/>
<path fill-rule="evenodd" clip-rule="evenodd" d="M1617 585C1621.95 585 1626.9 585 1632 585C1632.01 586.776 1632.02 588.551 1632.03 590.381C1632.06 596.272 1632.12 602.163 1632.18 608.055C1632.22 611.624 1632.26 615.192 1632.27 618.762C1632.29 622.211 1632.32 625.661 1632.37 629.11C1632.39 631.055 1632.39 633 1632.39 634.946C1632.51 642.076 1633.09 646.968 1637 653C1640.42 655.793 1643.59 656.827 1648 657C1655.05 655.446 1658.86 651.807 1663.19 646.125C1667.31 639.01 1667.33 632.208 1667.41 624.16C1667.43 623.038 1667.45 621.916 1667.47 620.76C1667.53 617.194 1667.58 613.628 1667.62 610.063C1667.66 607.637 1667.7 605.212 1667.74 602.787C1667.84 596.858 1667.92 590.929 1668 585C1672.62 585 1677.24 585 1682 585C1682 612.39 1682 639.78 1682 668C1677.71 668 1673.42 668 1669 668C1668.5 663.545 1668.5 663.545 1668 659C1667.03 660.073 1666.06 661.145 1665.06 662.25C1658.8 668.391 1653.27 670.228 1644.5 670.5C1635.82 670.222 1630.15 668.598 1624.12 662.25C1616.39 652.6 1616.85 641.446 1616.9 629.629C1616.9 628.351 1616.91 627.074 1616.91 625.758C1616.91 622.383 1616.92 619.008 1616.93 615.633C1616.94 612.18 1616.95 608.728 1616.95 605.275C1616.96 598.517 1616.98 591.758 1617 585V585Z" fill="white"/>
<path fill-rule="evenodd" clip-rule="evenodd" d="M109 586C115.116 590.148 119.018 594.821 121 602C122.16 609.161 122.128 616.226 122.098 623.469C122.096 624.745 122.095 626.021 122.093 627.336C122.089 630.702 122.08 634.069 122.069 637.436C122.058 640.882 122.054 644.328 122.049 647.773C122.038 654.516 122.021 661.258 122 668C117.38 668 112.76 668 108 668C107.985 666.255 107.971 664.509 107.956 662.711C107.904 656.919 107.839 651.128 107.764 645.337C107.72 641.828 107.68 638.32 107.654 634.811C107.622 630.77 107.568 626.729 107.512 622.688C107.505 621.438 107.499 620.189 107.492 618.902C107.387 608.424 107.387 608.424 102.584 599.354C99.1128 596.387 94.966 596.661 90.6328 596.73C85.6069 597.245 81.7708 598.923 78.4648 602.801C73.1061 610.847 72.6848 618.633 72.5859 628.059C72.5666 629.203 72.5472 630.347 72.5273 631.526C72.4677 635.163 72.4212 638.8 72.375 642.438C72.3368 644.911 72.2977 647.384 72.2578 649.857C72.162 655.905 72.0779 661.952 72 668C67.05 668 62.1 668 57 668C57 640.61 57 613.22 57 585C61.62 585 66.24 585 71 585C71.33 588.3 71.66 591.6 72 595C72.5156 594.278 73.0312 593.556 73.5625 592.813C82.3119 582.717 97.0007 578.975 109 586V586Z" fill="white"/>
<path fill-rule="evenodd" clip-rule="evenodd" d="M1339 585C1343.62 585 1348.24 585 1353 585C1353.02 586.548 1353.04 588.096 1353.06 589.691C1353.14 595.474 1353.23 601.257 1353.32 607.04C1353.36 609.535 1353.39 612.031 1353.42 614.526C1353.47 618.128 1353.53 621.73 1353.59 625.332C1353.6 626.435 1353.61 627.537 1353.62 628.673C1353.82 640.719 1353.82 640.719 1357.56 652C1361.67 655.369 1365.95 657.27 1371.34 656.793C1377.68 655.113 1381.39 651.33 1385 646C1388.02 640.591 1389.09 635.075 1389.21 628.934C1389.23 627.954 1389.25 626.973 1389.27 625.963C1389.28 624.917 1389.3 623.871 1389.32 622.793C1389.34 621.712 1389.36 620.632 1389.38 619.519C1389.44 616.075 1389.5 612.631 1389.56 609.187C1389.61 606.85 1389.65 604.512 1389.69 602.174C1389.8 596.449 1389.9 590.725 1390 585C1394.62 585 1399.24 585 1404 585C1404 612.39 1404 639.78 1404 668C1399.71 668 1395.42 668 1391 668C1390.67 664.7 1390.34 661.4 1390 658C1389.15 659.072 1388.31 660.145 1387.44 661.25C1383.5 665.849 1379.04 668.856 1373 670C1364.77 670.625 1356.96 670.937 1350 666C1343.78 660.388 1340.35 654.28 1339 646C1338.92 643.946 1338.88 641.889 1338.89 639.833C1338.89 638.612 1338.89 637.391 1338.89 636.133C1338.89 634.825 1338.9 633.516 1338.9 632.168C1338.9 630.807 1338.91 629.447 1338.91 628.087C1338.91 624.517 1338.92 620.948 1338.93 617.379C1338.94 613.733 1338.95 610.086 1338.95 606.439C1338.96 599.293 1338.98 592.146 1339 585V585Z" fill="white"/>
<path fill-rule="evenodd" clip-rule="evenodd" d="M345.16 584.902C352.135 589.063 356.813 594.079 359 602C360.16 609.161 360.128 616.226 360.098 623.469C360.096 624.745 360.095 626.021 360.093 627.336C360.089 630.702 360.08 634.069 360.069 637.436C360.058 640.882 360.054 644.328 360.049 647.773C360.038 654.516 360.021 661.258 360 668C355.38 668 350.76 668 346 668C345.985 666.219 345.971 664.438 345.956 662.603C345.904 656.7 345.839 650.797 345.764 644.894C345.72 641.317 345.68 637.74 345.654 634.163C345.627 630.707 345.587 627.251 345.537 623.795C345.512 621.844 345.502 619.892 345.492 617.941C345.387 611.577 345.221 606.568 342 601C337.635 596.907 333.232 596.701 327.496 596.793C321.54 597.287 318.208 600.472 314.395 604.695C309.91 612.106 309.538 619.783 309.488 628.254C309.47 629.395 309.452 630.537 309.434 631.713C309.38 635.329 309.346 638.946 309.312 642.562C309.279 645.027 309.245 647.491 309.209 649.955C309.124 655.97 309.057 661.985 309 668C304.38 668 299.76 668 295 668C295 640.61 295 613.22 295 585C299.29 585 303.58 585 308 585C308.33 588.3 308.66 591.6 309 595C309.516 594.278 310.031 593.556 310.563 592.812C319.062 583.005 333.008 579.379 345.16 584.902V584.902Z" fill="white"/>
<path fill-rule="evenodd" clip-rule="evenodd" d="M1183 586C1188.97 590.245 1193.73 595.033 1195.59 602.314C1196.06 605.365 1196.12 608.264 1196.11 611.351C1196.11 613.242 1196.11 613.242 1196.11 615.172C1196.11 616.538 1196.1 617.904 1196.1 619.27C1196.1 620.675 1196.09 622.08 1196.09 623.486C1196.09 627.173 1196.08 630.86 1196.07 634.548C1196.06 638.315 1196.05 642.082 1196.05 645.85C1196.04 653.233 1196.02 660.617 1196 668C1191.71 668 1187.42 668 1183 668C1182.97 665.625 1182.97 665.625 1182.94 663.202C1182.86 657.294 1182.77 651.386 1182.68 645.478C1182.64 642.927 1182.61 640.377 1182.58 637.826C1182.53 634.147 1182.47 630.468 1182.41 626.789C1182.4 625.66 1182.39 624.53 1182.38 623.366C1182.33 610.404 1182.33 610.404 1177 599C1172.52 596.152 1167.12 596.511 1162 597C1155.42 598.754 1152.37 602.344 1149 608C1145.73 615.628 1145.82 623.8 1145.68 631.965C1145.66 632.998 1145.64 634.031 1145.62 635.096C1145.56 638.377 1145.5 641.657 1145.44 644.938C1145.39 647.17 1145.35 649.402 1145.31 651.635C1145.2 657.09 1145.1 662.545 1145 668C1140.71 668 1136.42 668 1132 668C1130.48 664.955 1130.86 661.786 1130.87 658.445C1130.87 657.277 1130.87 657.277 1130.87 656.085C1130.86 653.503 1130.86 650.921 1130.87 648.34C1130.87 646.551 1130.87 644.763 1130.86 642.975C1130.86 639.225 1130.86 635.475 1130.87 631.724C1130.88 626.906 1130.87 622.089 1130.87 617.271C1130.86 613.578 1130.86 609.885 1130.87 606.192C1130.87 604.414 1130.87 602.637 1130.86 600.86C1130.86 598.382 1130.87 595.904 1130.87 593.426C1130.87 592.684 1130.87 591.943 1130.86 591.179C1130.89 586.114 1130.89 586.114 1132 585C1134.19 584.927 1136.38 584.916 1138.56 584.938C1140.36 584.951 1140.36 584.951 1142.19 584.965C1143.12 584.976 1144.05 584.988 1145 585C1145.33 587.97 1145.66 590.94 1146 594C1146.84 593.186 1146.84 593.186 1147.69 592.355C1157.43 583.221 1170.43 578.589 1183 586V586Z" fill="white"/>
<path fill-rule="evenodd" clip-rule="evenodd" d="M524.813 588.875C530.19 594.099 532.691 599.803 533.241 607.271C533.236 608.393 533.232 609.514 533.227 610.67C533.227 611.95 533.227 613.231 533.227 614.551C533.216 615.928 533.206 617.306 533.195 618.684C533.192 620.109 533.189 621.533 533.187 622.958C533.179 626.688 533.16 630.419 533.137 634.149C533.117 637.963 533.108 641.777 533.098 645.592C533.076 653.061 533.041 660.531 533 668C528.71 668 524.42 668 520 668C519.97 665.526 519.97 665.526 519.94 663.002C519.864 656.858 519.775 650.713 519.683 644.569C519.643 641.914 519.61 639.259 519.578 636.605C519.532 632.779 519.474 628.954 519.414 625.129C519.403 623.95 519.391 622.772 519.379 621.558C519.393 610.029 519.393 610.029 514.562 600C509.76 596.252 504.847 596.537 499 597C493.265 598.529 490.64 601.132 487.262 605.77C483.497 612.425 483.661 618.945 483.586 626.398C483.567 627.589 483.547 628.779 483.527 630.005C483.468 633.795 483.421 637.585 483.375 641.375C483.337 643.949 483.298 646.523 483.258 649.098C483.162 655.398 483.078 661.699 483 668C478.38 668 473.76 668 469 668C469 640.61 469 613.22 469 585C473.29 585 477.58 585 482 585C482.33 587.97 482.66 590.94 483 594C483.835 593.186 483.835 593.186 484.688 592.355C496.818 580.983 510.679 579.452 524.813 588.875V588.875Z" fill="white"/>
<path fill-rule="evenodd" clip-rule="evenodd" d="M131 585C135.95 585 140.9 585 146 585C150.468 595.723 154.138 606.732 157.937 617.705C162.683 631.459 162.683 631.459 168 645C168.393 643.817 168.785 642.633 169.19 641.414C170.676 636.939 172.163 632.464 173.652 627.99C174.29 626.069 174.928 624.148 175.566 622.227C178.785 612.526 182.021 602.831 185.398 593.184C185.772 592.108 185.772 592.108 186.154 591.01C187.88 586.12 187.88 586.12 189 585C191.02 584.928 193.042 584.916 195.062 584.938C196.167 584.947 197.272 584.956 198.41 584.965C199.265 584.976 200.119 584.988 201 585C199.467 592.949 196.892 600.38 194.188 608C190.06 619.731 190.06 619.731 186.438 631.625C184.257 639.323 181.774 646.908 179.25 654.5C178.848 655.714 178.447 656.928 178.033 658.178C177.468 659.869 177.468 659.869 176.891 661.594C176.381 663.12 176.381 663.12 175.86 664.678C175 667 175 667 174 668C171.47 668.073 168.967 668.092 166.438 668.062C165.371 668.056 165.371 668.056 164.283 668.049C162.522 668.037 160.761 668.019 159 668C158.811 667.465 158.623 666.931 158.429 666.38C156.408 660.65 154.385 654.922 152.361 649.194C151.581 646.987 150.801 644.78 150.022 642.573C144.314 626.407 144.314 626.407 138.422 610.309C138.03 609.254 138.03 609.254 137.63 608.178C136.448 605.005 135.256 601.837 134.05 598.673C133.435 597.035 133.435 597.035 132.809 595.363C132.456 594.438 132.103 593.513 131.74 592.56C131 590 131 590 131 585V585Z" fill="white"/>
<path fill-rule="evenodd" clip-rule="evenodd" d="M398 564C398 570.93 398 577.86 398 585C403.61 585 409.22 585 415 585C415 588.96 415 592.92 415 597C409.39 597 403.78 597 398 597C398.093 604.617 398.2 612.234 398.317 619.852C398.356 622.443 398.391 625.035 398.422 627.627C398.467 631.35 398.525 635.074 398.586 638.797C398.597 639.957 398.609 641.118 398.621 642.314C398.641 643.394 398.661 644.475 398.681 645.589C398.694 646.539 398.708 647.49 398.722 648.469C399.013 651.116 399.6 652.75 401 655C404.523 657.667 408.529 657.229 412.75 657.125C413.447 657.116 414.145 657.107 414.863 657.098C416.576 657.074 418.288 657.038 420 657C420 660.96 420 664.92 420 669C414.119 671.941 403.325 670.754 396.984 669.316C391.09 666.901 387.656 663.229 384.75 657.562C382.687 650.513 382.868 643.443 382.902 636.16C382.904 635.038 382.905 633.916 382.907 632.76C382.912 629.194 382.925 625.628 382.938 622.062C382.943 619.637 382.947 617.212 382.951 614.787C382.962 608.858 382.979 602.929 383 597C378.71 597 374.42 597 370 597C370 593.04 370 589.08 370 585C374.29 585 378.58 585 383 585C383.33 578.4 383.66 571.8 384 565C388.637 563.454 393.125 563.943 398 564V564Z" fill="white"/>
<path fill-rule="evenodd" clip-rule="evenodd" d="M1720 564C1720 570.93 1720 577.86 1720 585C1725.94 585 1731.88 585 1738 585C1738 588.96 1738 592.92 1738 597C1732.06 597 1726.12 597 1720 597C1720.07 604.296 1720.16 611.592 1720.26 618.887C1720.3 621.368 1720.32 623.849 1720.35 626.331C1720.38 629.9 1720.43 633.47 1720.49 637.039C1720.49 638.146 1720.5 639.252 1720.51 640.392C1720.61 645.971 1720.78 650.218 1724 655C1727.43 657.754 1731.55 657.228 1735.75 657.125C1736.45 657.116 1737.14 657.107 1737.86 657.098C1739.58 657.074 1741.29 657.038 1743 657C1743 660.96 1743 664.92 1743 669C1736.08 671.306 1725.42 671.176 1718.38 669C1712.4 665.462 1708.26 661.055 1706.41 654.262C1705.52 649.324 1705.76 644.285 1705.8 639.285C1705.81 638.074 1705.81 636.863 1705.81 635.616C1705.82 631.765 1705.85 627.914 1705.88 624.062C1705.89 621.445 1705.89 618.827 1705.9 616.209C1705.92 609.806 1705.96 603.403 1706 597C1701.71 597 1697.42 597 1693 597C1693 593.04 1693 589.08 1693 585C1697.29 585 1701.58 585 1706 585C1705.99 583.891 1705.98 582.783 1705.96 581.641C1705.96 580.177 1705.95 578.714 1705.94 577.25C1705.92 576.156 1705.92 576.156 1705.91 575.039C1705.88 568.288 1705.88 568.288 1707 565C1710.85 563.074 1715.8 563.951 1720 564V564Z" fill="white"/>
<path fill-rule="evenodd" clip-rule="evenodd" d="M18 557C23.28 557 28.56 557 34 557C34 593.63 34 630.26 34 668C28.72 668 23.44 668 18 668C18 631.37 18 594.74 18 557V557Z" fill="white"/>
<path fill-rule="evenodd" clip-rule="evenodd" d="M905 583C905 587.62 905 592.24 905 597C903.02 597.186 901.04 597.371 899 597.563C892.239 598.622 888.182 600.54 884 606C880.704 611.725 878.914 617.351 878.795 623.952C878.775 624.933 878.755 625.914 878.734 626.924C878.709 628.501 878.709 628.501 878.684 630.109C878.663 631.191 878.642 632.273 878.621 633.388C878.555 636.842 878.496 640.296 878.438 643.75C878.394 646.092 878.351 648.435 878.307 650.777C878.2 656.518 878.098 662.259 878 668C873.05 668 868.1 668 863 668C863 640.61 863 613.22 863 585C867.29 585 871.58 585 876 585C876.33 589.29 876.66 593.58 877 598C877.846 596.618 878.691 595.236 879.562 593.813C886.273 583.715 893.485 582.876 905 583V583Z" fill="white"/>
<path fill-rule="evenodd" clip-rule="evenodd" d="M1877.19 582.938C1878.82 582.951 1878.82 582.951 1880.48 582.965C1881.31 582.976 1882.14 582.988 1883 583C1883.03 585.146 1883.05 587.292 1883.06 589.438C1883.07 590.632 1883.09 591.827 1883.1 593.059C1883 596 1883 596 1882 597C1880.15 597.219 1878.29 597.425 1876.44 597.625C1869.94 598.684 1866.07 600.806 1862 606C1858.7 611.718 1856.91 617.356 1856.79 623.952C1856.77 624.933 1856.75 625.914 1856.73 626.924C1856.71 628.501 1856.71 628.501 1856.68 630.109C1856.66 631.191 1856.64 632.273 1856.62 633.388C1856.56 636.842 1856.5 640.296 1856.44 643.75C1856.39 646.092 1856.35 648.435 1856.31 650.777C1856.2 656.518 1856.1 662.259 1856 668C1851.38 668 1846.76 668 1842 668C1842 640.61 1842 613.22 1842 585C1845.96 585 1849.92 585 1854 585C1854.33 589.29 1854.66 593.58 1855 598C1855.85 596.618 1856.69 595.236 1857.56 593.813C1862.55 586.311 1868.08 582.84 1877.19 582.938V582.938Z" fill="white"/>
<path fill-rule="evenodd" clip-rule="evenodd" d="M1219 585C1223.62 585 1228.24 585 1233 585C1233 612.39 1233 639.78 1233 668C1228.38 668 1223.76 668 1219 668C1219 640.61 1219 613.22 1219 585V585Z" fill="white"/>
<path fill-rule="evenodd" clip-rule="evenodd" d="M432 585C436.62 585 441.24 585 446 585C446 612.39 446 639.78 446 668C441.38 668 436.76 668 432 668C432 640.61 432 613.22 432 585V585Z" fill="white"/>
<path fill-rule="evenodd" clip-rule="evenodd" d="M431 557C436.28 557 441.56 557 447 557C447 562.28 447 567.56 447 573C441.72 573 436.44 573 431 573C431 567.72 431 562.44 431 557V557Z" fill="white"/>
<path fill-rule="evenodd" clip-rule="evenodd" d="M1219 557C1223.62 557 1228.24 557 1233 557C1233 562.28 1233 567.56 1233 573C1228.38 573 1223.76 573 1219 573C1219 567.72 1219 562.44 1219 557V557Z" fill="white"/>
</g>
<defs>
<clipPath id="clip0_0_2">
<rect width="1980" height="698" fill="white"/>
</clipPath>
</defs>
</svg>
