<?xml version="1.0" encoding="utf-8"?>
<svg width="241" height="105" viewBox="0 0 241 105" fill="none" stroke="none" version="1.1" xmlns:xlink="http://www.w3.org/1999/xlink" xmlns="http://www.w3.org/2000/svg">
  <defs>
    <path id="path_1" d="M241 0L241 0L241 105L0 105L0 0L241 0Z" />
    <rect id="rect_2" x="0" y="0" width="241" height="105" />
    <clipPath id="clip_path_3">
      <use xlink:href="#rect_2" />
    </clipPath>
    <rect id="rect_4" x="0" y="0" width="241" height="82" />
    <clipPath id="clip_path_5">
      <use xlink:href="#rect_4" />
    </clipPath>
  </defs>
  <g id="logo" opacity="1" clip-path="url(#clip_path_3)">
    <g>
      <use xlink:href="#path_1" style="mix-blend-mode:normal;" />
      <g>
        <g clip-path="url(#clip_path_5)" style="mix-blend-mode:normal;" transform="translate(-4 7)">
          <path d="M62.207 69.2822L53.252 69.2822L53.252 40.0928L37.4951 67.8125Q36.9141 68.8721 35.8716 69.4189Q34.8291 69.9658 33.6328 69.9658Q32.4707 69.9658 31.4624 69.4189Q30.4541 68.8721 29.873 67.8125L14.0479 40.0928L14.0479 69.2822L5.16113 69.2822L5.16113 24.0625Q5.16113 22.5244 6.06689 21.3281Q6.97266 20.1318 8.44238 19.7217Q9.16016 19.5508 9.87793 19.6021Q10.5957 19.6533 11.2622 19.9097Q11.9287 20.166 12.4756 20.6274Q13.0225 21.0889 13.3984 21.7383L33.6328 56.9092L53.8672 21.7383Q54.6533 20.4395 56.0376 19.8926Q57.4219 19.3457 58.9258 19.7217Q60.3613 20.1318 61.2842 21.3281Q62.207 22.5244 62.207 24.0625L62.207 69.2822ZM201.592 69.2822L197.627 69.2822Q195.713 69.2822 193.542 68.6328Q191.372 67.9834 189.492 66.4966Q187.612 65.0098 186.382 62.6343Q185.151 60.2588 185.151 56.8066L185.151 16.7139L194.038 16.7139L194.038 56.8066Q194.038 58.4473 195.063 59.4214Q196.089 60.3955 197.627 60.3955L201.592 60.3955L201.592 69.2822Z" style="fill:#9ED203;" />
        </g>
        <g style="mix-blend-mode:normal;" transform="translate(61 22)">
          <path d="M15.2109 19.4766Q15.2109 20.2617 15.0117 20.8887Q14.8125 21.5156 14.4844 21.9902Q14.1562 22.4648 13.7227 22.7988Q13.2891 23.1328 12.8145 23.3438Q12.3398 23.5547 11.8535 23.6543Q11.3672 23.7539 10.9336 23.7539L5.4375 23.7539Q4.80469 23.7539 4.05469 23.5312Q3.30469 23.3086 2.66602 22.7988Q2.02734 22.2891 1.59961 21.4746Q1.17188 20.6602 1.17188 19.4766L1.17188 15.3516Q1.17188 14.1797 1.59961 13.3652Q2.02734 12.5508 2.66602 12.041Q3.30469 11.5312 4.05469 11.3086Q4.80469 11.0859 5.4375 11.0859L10.9336 11.0859Q12.1055 11.0859 12.9258 11.5078Q13.7461 11.9297 14.25 12.5684Q14.7539 13.207 14.9824 13.957Q15.2109 14.707 15.2109 15.3516L15.2109 19.4766ZM12.1641 15.375Q12.1641 14.7422 11.8477 14.4375Q11.5312 14.1328 10.9336 14.1328L5.46094 14.1328Q4.85156 14.1328 4.53516 14.4434Q4.21875 14.7539 4.21875 15.3516L4.21875 19.4766Q4.21875 20.0742 4.53516 20.3906Q4.85156 20.707 5.46094 20.707L10.9336 20.707Q11.5547 20.707 11.8594 20.3906Q12.1641 20.0742 12.1641 19.4766L12.1641 15.375ZM23.3672 23.7539L22.0078 23.7539Q21.3516 23.7539 20.6074 23.5312Q19.8633 23.3086 19.2188 22.7988Q18.5742 22.2891 18.1523 21.4746Q17.7305 20.6602 17.7305 19.4766L17.7305 5.73047L20.7773 5.73047L20.7773 19.4766Q20.7773 20.0391 21.1289 20.373Q21.4805 20.707 22.0078 20.707L23.3672 20.707L23.3672 23.7539ZM38.9531 15.2812Q38.9531 15.9141 38.7305 16.6465Q38.5078 17.3789 38.0098 18.0059Q37.5117 18.6328 36.709 19.0547Q35.9062 19.4766 34.7578 19.4766L29.2617 19.4766L29.2617 16.582L34.7578 16.582Q35.3789 16.582 35.7188 16.2012Q36.0586 15.8203 36.0586 15.2578Q36.0586 14.6602 35.6777 14.3203Q35.2969 13.9805 34.7578 13.9805L29.2617 13.9805Q28.6406 13.9805 28.3008 14.3613Q27.9609 14.7422 27.9609 15.3047L27.9609 19.5586Q27.9609 20.168 28.3418 20.5078Q28.7227 20.8477 29.2852 20.8477L34.7578 20.8477L34.7578 23.7539L29.2617 23.7539Q28.6289 23.7539 27.8965 23.5312Q27.1641 23.3086 26.5371 22.8105Q25.9102 22.3125 25.4883 21.5098Q25.0664 20.707 25.0664 19.5586L25.0664 15.2812Q25.0664 14.6484 25.2891 13.916Q25.5117 13.1836 26.0098 12.5566Q26.5078 11.9297 27.3105 11.5078Q28.1133 11.0859 29.2617 11.0859L34.7578 11.0859Q35.3906 11.0859 36.123 11.3086Q36.8555 11.5312 37.4824 12.0293Q38.1094 12.5273 38.5312 13.3301Q38.9531 14.1328 38.9531 15.2812ZM53.2734 23.7539L45.0117 23.7539Q44.3789 23.7539 43.6289 23.5312Q42.8789 23.3086 42.2402 22.7988Q41.6016 22.2891 41.1738 21.4746Q40.7461 20.6602 40.7461 19.4766L40.7461 15.3516Q40.7461 14.918 40.8457 14.4375Q40.9453 13.957 41.1562 13.4824Q41.3672 13.0078 41.7012 12.5742Q42.0352 12.1406 42.5098 11.8125Q42.9844 11.4844 43.6055 11.2852Q44.2266 11.0859 45.0117 11.0859L53.2734 11.0859L53.2734 14.1328L45.0117 14.1328Q44.4141 14.1328 44.1035 14.4375Q43.793 14.7422 43.793 15.375L43.793 19.4766Q43.793 20.0742 44.1094 20.3906Q44.4258 20.707 45.0352 20.707L53.2734 20.707L53.2734 23.7539ZM69.6445 22.2188Q69.6445 22.5469 69.5273 22.8281Q69.4102 23.1094 69.2051 23.3145Q69 23.5195 68.7246 23.6367Q68.4492 23.7539 68.1328 23.7539L61.2422 23.7539Q60.6797 23.7539 60.041 23.625Q59.4023 23.4961 58.7812 23.209Q58.1602 22.9219 57.5801 22.4824Q57 22.043 56.5664 21.416Q56.1328 20.7891 55.8691 19.9688Q55.6055 19.1484 55.6055 18.1172L55.6055 11.0859L58.6523 11.0859L58.6523 18.1172Q58.6523 18.7148 58.8574 19.1895Q59.0625 19.6641 59.4141 20.0039Q59.7656 20.3438 60.2402 20.5254Q60.7148 20.707 61.2656 20.707L66.5977 20.707L66.5977 11.0859L69.6445 11.0859L69.6445 22.2188ZM78.0703 23.7539L76.7109 23.7539Q76.0547 23.7539 75.3105 23.5312Q74.5664 23.3086 73.9219 22.7988Q73.2773 22.2891 72.8555 21.4746Q72.4336 20.6602 72.4336 19.4766L72.4336 5.73047L75.4805 5.73047L75.4805 19.4766Q75.4805 20.0391 75.832 20.373Q76.1836 20.707 76.7109 20.707L78.0703 20.707L78.0703 23.7539ZM93.1055 19.5586Q93.1055 20.1914 92.8828 20.9238Q92.6602 21.6562 92.1621 22.2832Q91.6641 22.9102 90.8613 23.332Q90.0586 23.7539 88.9102 23.7539L83.4141 23.7539Q82.7812 23.7539 82.0488 23.5312Q81.3164 23.3086 80.6895 22.8105Q80.0625 22.3125 79.6406 21.5098Q79.2188 20.707 79.2188 19.5586Q79.2188 18.9258 79.4414 18.1875Q79.6641 17.4492 80.1621 16.8223Q80.6602 16.1953 81.4629 15.7734Q82.2656 15.3516 83.4141 15.3516L88.9102 15.3516L88.9102 18.2578L83.4141 18.2578Q82.793 18.2578 82.4531 18.6387Q82.1133 19.0195 82.1133 19.582Q82.1133 20.1797 82.5059 20.5137Q82.8984 20.8477 83.4375 20.8477L88.9102 20.8477Q89.5312 20.8477 89.8711 20.4727Q90.2109 20.0977 90.2109 19.5352L90.2109 15.2812Q90.2109 14.6836 89.8418 14.332Q89.4727 13.9805 88.9102 13.9805L82.2188 13.9805L82.2188 11.0859L88.9102 11.0859Q89.543 11.0859 90.2754 11.3086Q91.0078 11.5312 91.6348 12.0293Q92.2617 12.5273 92.6836 13.3301Q93.1055 14.1328 93.1055 15.2812L93.1055 19.5586ZM106.793 14.1328L99.9375 14.1328Q99.3164 14.1328 99 14.4434Q98.6836 14.7539 98.6836 15.3516L98.6836 23.7539L95.6367 23.7539L95.6367 15.3516Q95.6367 14.5664 95.8359 13.9453Q96.0352 13.3242 96.3691 12.8496Q96.7031 12.375 97.1367 12.041Q97.5703 11.707 98.0449 11.4961Q98.5195 11.2852 99.0059 11.1855Q99.4922 11.0859 99.9141 11.0859L106.793 11.0859L106.793 14.1328Z" style="fill:#E9F3DE;" />
          <path d="M15.2109 19.4766Q15.2109 20.2617 15.0117 20.8887Q14.8125 21.5156 14.4844 21.9902Q14.1562 22.4648 13.7227 22.7988Q13.2891 23.1328 12.8145 23.3438Q12.3398 23.5547 11.8535 23.6543Q11.3672 23.7539 10.9336 23.7539L5.4375 23.7539Q4.80469 23.7539 4.05469 23.5312Q3.30469 23.3086 2.66602 22.7988Q2.02734 22.2891 1.59961 21.4746Q1.17188 20.6602 1.17188 19.4766L1.17188 15.3516Q1.17188 14.1797 1.59961 13.3652Q2.02734 12.5508 2.66602 12.041Q3.30469 11.5312 4.05469 11.3086Q4.80469 11.0859 5.4375 11.0859L10.9336 11.0859Q12.1055 11.0859 12.9258 11.5078Q13.7461 11.9297 14.25 12.5684Q14.7539 13.207 14.9824 13.957Q15.2109 14.707 15.2109 15.3516L15.2109 19.4766ZM12.1641 15.375Q12.1641 14.7422 11.8477 14.4375Q11.5312 14.1328 10.9336 14.1328L5.46094 14.1328Q4.85156 14.1328 4.53516 14.4434Q4.21875 14.7539 4.21875 15.3516L4.21875 19.4766Q4.21875 20.0742 4.53516 20.3906Q4.85156 20.707 5.46094 20.707L10.9336 20.707Q11.5547 20.707 11.8594 20.3906Q12.1641 20.0742 12.1641 19.4766L12.1641 15.375ZM31.6992 19.4766Q31.6992 20.2617 31.5 20.8887Q31.3008 21.5156 30.9727 21.9902Q30.6445 22.4648 30.2109 22.7988Q29.7773 23.1328 29.3027 23.3438Q28.8281 23.5547 28.3418 23.6543Q27.8555 23.7539 27.4219 23.7539L21.9258 23.7539Q21.1406 23.7539 20.5195 23.5547Q19.8984 23.3555 19.4238 23.0215Q18.9492 22.6875 18.6152 22.2539Q18.2812 21.8203 18.0703 21.3457Q17.8594 20.8711 17.7598 20.3848Q17.6602 19.8984 17.6602 19.4766L17.6602 15.3516Q17.6602 14.1797 18.0879 13.3652Q18.5156 12.5508 19.1543 12.041Q19.793 11.5312 20.543 11.3086Q21.293 11.0859 21.9258 11.0859L27.4219 11.0859L27.4219 14.1328L21.9492 14.1328Q21.3398 14.1328 21.0234 14.4434Q20.707 14.7539 20.707 15.3516L20.707 19.4531Q20.707 20.0742 21.0176 20.3906Q21.3281 20.707 21.9258 20.707L27.4219 20.707Q28.043 20.707 28.3477 20.3906Q28.6523 20.0742 28.6523 19.4766L28.6523 5.73047L31.6992 5.73047L31.6992 19.4766ZM48.2344 15.2812Q48.2344 15.9141 48.0117 16.6465Q47.7891 17.3789 47.291 18.0059Q46.793 18.6328 45.9902 19.0547Q45.1875 19.4766 44.0391 19.4766L38.543 19.4766L38.543 16.582L44.0391 16.582Q44.6602 16.582 45 16.2012Q45.3398 15.8203 45.3398 15.2578Q45.3398 14.6602 44.959 14.3203Q44.5781 13.9805 44.0391 13.9805L38.543 13.9805Q37.9219 13.9805 37.582 14.3613Q37.2422 14.7422 37.2422 15.3047L37.2422 19.5586Q37.2422 20.168 37.623 20.5078Q38.0039 20.8477 38.5664 20.8477L44.0391 20.8477L44.0391 23.7539L38.543 23.7539Q37.9102 23.7539 37.1777 23.5312Q36.4453 23.3086 35.8184 22.8105Q35.1914 22.3125 34.7695 21.5098Q34.3477 20.707 34.3477 19.5586L34.3477 15.2812Q34.3477 14.6484 34.5703 13.916Q34.793 13.1836 35.291 12.5566Q35.7891 11.9297 36.5918 11.5078Q37.3945 11.0859 38.543 11.0859L44.0391 11.0859Q44.6719 11.0859 45.4043 11.3086Q46.1367 11.5312 46.7637 12.0293Q47.3906 12.5273 47.8125 13.3301Q48.2344 14.1328 48.2344 15.2812ZM55.8516 23.7539L54.4922 23.7539Q53.8359 23.7539 53.0918 23.5312Q52.3477 23.3086 51.7031 22.7988Q51.0586 22.2891 50.6367 21.4746Q50.2148 20.6602 50.2148 19.4766L50.2148 5.73047L53.2617 5.73047L53.2617 19.4766Q53.2617 20.0391 53.6133 20.373Q53.9648 20.707 54.4922 20.707L55.8516 20.707L55.8516 23.7539ZM63.375 23.7539L62.0156 23.7539Q61.3594 23.7539 60.6152 23.5312Q59.8711 23.3086 59.2266 22.7988Q58.582 22.2891 58.1602 21.4746Q57.7383 20.6602 57.7383 19.4766L57.7383 5.73047L60.7852 5.73047L60.7852 19.4766Q60.7852 20.0391 61.1367 20.373Q61.4883 20.707 62.0156 20.707L63.375 20.707L63.375 23.7539ZM68.4258 8.48438L65.3789 8.48438L65.3789 5.73047L68.4258 5.73047L68.4258 8.48438ZM68.4258 23.7539L65.3789 23.7539L65.3789 11.0859L68.4258 11.0859L68.4258 23.7539ZM85.3828 23.7539L82.3359 23.7539L82.3359 16.7227Q82.3359 16.125 82.1309 15.6504Q81.9258 15.1758 81.5742 14.8359Q81.2227 14.4961 80.748 14.3145Q80.2734 14.1328 79.7227 14.1328L74.3906 14.1328L74.3906 23.7539L71.3438 23.7539L71.3438 12.5977Q71.3438 12.2812 71.4609 12.0059Q71.5781 11.7305 71.7891 11.5254Q72 11.3203 72.2812 11.2031Q72.5625 11.0859 72.8789 11.0859L79.7461 11.0859Q80.3203 11.0859 80.959 11.2148Q81.5977 11.3438 82.2246 11.6309Q82.8516 11.918 83.4199 12.3574Q83.9883 12.7969 84.4277 13.4238Q84.8672 14.0508 85.125 14.8711Q85.3828 15.6914 85.3828 16.7227L85.3828 23.7539ZM101.836 24.9727Q101.836 25.7578 101.637 26.3848Q101.438 27.0117 101.109 27.4863Q100.781 27.9609 100.348 28.2949Q99.9141 28.6289 99.4395 28.8398Q98.9648 29.0508 98.4785 29.1504Q97.9922 29.25 97.5586 29.25L92.0625 29.25L92.0625 26.2031L97.5586 26.2031Q98.1797 26.2031 98.4844 25.8867Q98.7891 25.5703 98.7891 24.9727L98.7891 15.3516Q98.7891 14.7539 98.4844 14.4434Q98.1797 14.1328 97.5586 14.1328L92.0625 14.1328Q91.5 14.1328 91.1719 14.4785Q90.8438 14.8242 90.8438 15.3516L90.8438 19.4766Q90.8438 20.0742 91.1602 20.3906Q91.4766 20.707 92.0859 20.707L97.5586 20.707L97.5586 23.7539L92.0625 23.7539Q91.6289 23.7539 91.1484 23.6543Q90.668 23.5547 90.1934 23.3438Q89.7188 23.1328 89.2852 22.7988Q88.8516 22.4648 88.5234 21.9902Q88.1953 21.5156 87.9961 20.8887Q87.7969 20.2617 87.7969 19.4766L87.7969 15.3516Q87.7969 14.918 87.8965 14.4375Q87.9961 13.957 88.207 13.4824Q88.418 13.0078 88.752 12.5742Q89.0859 12.1406 89.5605 11.8125Q90.0352 11.4844 90.6562 11.2852Q91.2773 11.0859 92.0625 11.0859L97.5586 11.0859Q97.9922 11.0859 98.4785 11.1855Q98.9648 11.2852 99.4395 11.4961Q99.9141 11.707 100.348 12.041Q100.781 12.375 101.109 12.8496Q101.438 13.3242 101.637 13.9453Q101.836 14.5664 101.836 15.3516L101.836 24.9727Z" transform="translate(0 30.598)" style="fill:#E9F3DE;" />
        </g>
        <g style="mix-blend-mode:normal;" transform="translate(200 53)">
          <path d="M18.2578 23.7539L15.2109 23.7539L15.2109 19.6289L4.5 19.6289L4.5 23.7539L1.45312 23.7539L1.45312 15.3516Q1.45312 13.5117 2.08594 11.9648Q2.71875 10.418 3.84375 9.30469Q4.96875 8.19141 6.50391 7.57031Q8.03906 6.94922 9.85547 6.94922L16.7227 6.94922Q17.0391 6.94922 17.3203 7.06641Q17.6016 7.18359 17.8125 7.39453Q18.0234 7.60547 18.1406 7.88672Q18.2578 8.16797 18.2578 8.48438L18.2578 23.7539ZM4.5 16.582L15.2109 16.582L15.2109 9.99609L9.85547 9.99609Q9.71484 9.99609 9.26367 10.0371Q8.8125 10.0781 8.2207 10.2422Q7.62891 10.4062 6.97266 10.7461Q6.31641 11.0859 5.76562 11.6836Q5.21484 12.2812 4.85742 13.1777Q4.5 14.0742 4.5 15.3516L4.5 16.582ZM38.5664 20.0625Q38.5664 20.625 38.373 21.2695Q38.1797 21.9141 37.7402 22.4648Q37.3008 23.0156 36.5977 23.3848Q35.8945 23.7539 34.875 23.7539L23.3086 23.7539Q22.9805 23.7539 22.6992 23.6367Q22.418 23.5195 22.2129 23.3145Q22.0078 23.1094 21.8906 22.8281Q21.7734 22.5469 21.7734 22.2188L21.7734 8.48438Q21.7734 8.16797 21.8906 7.88672Q22.0078 7.60547 22.2129 7.39453Q22.418 7.18359 22.6992 7.06641Q22.9805 6.94922 23.3086 6.94922L33.5039 6.94922Q34.0664 6.94922 34.7109 7.14844Q35.3555 7.34766 35.9121 7.78711Q36.4688 8.22656 36.8379 8.92969Q37.207 9.63281 37.207 10.6523L37.207 11.2266Q37.207 12.0352 36.9375 12.9668Q36.668 13.8984 36.0703 14.7305Q36.5859 15.0469 37.0371 15.4922Q37.4883 15.9375 37.8281 16.5234Q38.168 17.1094 38.3672 17.8477Q38.5664 18.5859 38.5664 19.4766L38.5664 20.0625ZM35.5195 19.4766Q35.5195 18.8789 35.332 18.4043Q35.1445 17.9297 34.8047 17.5898Q34.4648 17.25 33.9844 17.0684Q33.5039 16.8867 32.9062 16.8867L26.0391 16.8867L26.0391 13.8164L31.5352 13.8164Q32.1328 13.8164 32.6133 13.6348Q33.0938 13.4531 33.4336 13.1133Q33.7734 12.7734 33.9551 12.2988Q34.1367 11.8242 34.1367 11.2266L34.1367 10.6523Q34.1367 9.99609 33.5039 9.99609L24.8203 9.99609L24.8203 20.707L34.875 20.707Q34.957 20.707 35.0742 20.6953Q35.1914 20.6836 35.2852 20.625Q35.3789 20.5664 35.4492 20.4258Q35.5195 20.2852 35.5195 20.0391L35.5195 19.4766Z" style="fill:#E9F3DE;" />
        </g>
      </g>
    </g>
  </g>
</svg>